<?xml version="1.0" encoding="utf-8"?>
<!-- Generator: Adobe Illustrator 21.1.0, SVG Export Plug-In . SVG Version: 6.00 Build 0)  -->
<svg version="1.1" id="Calque_1" xmlns="http://www.w3.org/2000/svg" xmlns:xlink="http://www.w3.org/1999/xlink" x="0px" y="0px"
	 viewBox="0 0 86.8 104" style="enable-background:new 0 0 86.8 104;" xml:space="preserve">
<style type="text/css">
	.st0{fill:#322B3D;}
	.st1{fill:#535066;}
	.st2{fill:#BAB9C2;}
	.st3{fill:#FFFFFD;}
	.st4{fill:#BBBDC4;}
	.st5{fill:#9697A1;}
	.st6{fill:#2D2D4A;}
	.st7{fill:#BEBDC3;}
	.st8{fill:#CBCCCC;}
</style>
<g>
	<path class="st0" d="M138.9,21.8c0,0-3.3,1.7-3.3,4.6c0,0-0.4,3.7,5.9,4.1l34.5,3.7l6.6,0.8l15.1,15.1l1.5,8l3.8,35.6
		c0,0,0.4,3.9,4.1,4.1c0,0,3.3,0.4,4.5-4.5l14.5-35.9c0,0,6.9-13.4-8.8-20.9l-9-9c0,0,6.7-8.9,15.7-2c0,0,4.7,3.2,3.7,9l1.2,0.1
		c0,0,1.4-6.6-3.6-10.9c0,0-7.3-8-19,2l-9.3-9.4c0,0-4.6-15.9-23.3-8.4L138.9,21.8z"/>
	<circle class="st1" cx="182.3" cy="20.6" r="15.6"/>
	<circle class="st1" cx="213.4" cy="51.2" r="15.6"/>
	<g>
		<circle class="st2" cx="178.4" cy="16.7" r="3.3"/>
		<circle class="st2" cx="178.4" cy="24.6" r="3.3"/>
		<circle class="st2" cx="186.6" cy="24.6" r="3.3"/>
		<circle class="st2" cx="186.6" cy="16.7" r="3.3"/>
	</g>
	<g>
		<circle class="st2" cx="208.8" cy="47.2" r="3.3"/>
		<circle class="st2" cx="208.8" cy="55.1" r="3.3"/>
		<circle class="st2" cx="217.1" cy="55.1" r="3.3"/>
		<circle class="st2" cx="217.1" cy="47.2" r="3.3"/>
	</g>
</g>
<g>
	<circle class="st3" cx="25.9" cy="23.3" r="19.6"/>
	<circle class="st3" cx="65.2" cy="23.3" r="19.6"/>
	<circle class="st4" cx="65.2" cy="23.3" r="17.9"/>
	<circle class="st4" cx="25.9" cy="23.3" r="17.9"/>
	<circle class="st5" cx="65.2" cy="23.3" r="12.8"/>
	<circle class="st5" cx="25.9" cy="23.3" r="12.8"/>
	<rect x="8.9" y="50.5" class="st3" width="5.4" height="14.6"/>
	<rect x="14.4" y="52" class="st6" width="5.4" height="10.7"/>
	<path class="st3" d="M62.7,42.1c-9.5,0.6-35.9,0-35.9,0s-4.5-0.1-4.5,2.8v23c0,0-0.1,2.8,2.8,2.8c1,0,5.9,0,12.2,0v4.8h2.2
		L27.2,98.8c0,0-1.9,4.3,1.3,0.8l15.2-24h4.4l15.8,24.5c0,0,1.6,1.9,0.5-0.9L52.2,75.5h1.7v-4.8c7.7,0,13.9,0,13.9,0s3.2-0.1,3.2-3
		s0-22.1,0-22.1S72.2,41.5,62.7,42.1z"/>
	<rect x="19.8" y="51.5" class="st7" width="2.4" height="11.7"/>
	<circle class="st4" cx="45.6" cy="56.3" r="11.4"/>
	<circle class="st5" cx="45.6" cy="56.3" r="4.6"/>
	<path class="st6" d="M62.1,46.1c-2,0-3.7,1.6-3.7,3.7l-12.9,5.7c-0.1,0-0.1,0-0.2,0.1h-0.1l0,0c-0.3,0.2-0.6,0.6-0.6,1
		c0,0.7,0.6,1.2,1.2,1.2c0.3,0,0.5-0.1,0.7-0.2l0,0l13-5.3l0,0c0.7,0.6,1.5,1,2.5,1c2,0,3.7-1.6,3.7-3.7
		C65.8,47.7,64.1,46.1,62.1,46.1z"/>
	<rect x="71.1" y="45.9" class="st6" width="5.4" height="5.6"/>
	<rect x="76.5" y="44.9" class="st4" width="2.6" height="7.5"/>
	<path class="st8" d="M43.6,75.5l2.4,25.4c0,0,0.7,2.6,1.4,0L48,75.5H43.6z"/>
</g>
</svg>
