<?xml version="1.0" encoding="utf-8"?>
<!-- Generator: Adobe Illustrator 21.1.0, SVG Export Plug-In . SVG Version: 6.00 Build 0)  -->
<svg version="1.1" id="Object" xmlns="http://www.w3.org/2000/svg" xmlns:xlink="http://www.w3.org/1999/xlink" x="0px" y="0px"
	 viewBox="0 0 750 633" style="enable-background:new 0 0 750 633;" xml:space="preserve">
<style type="text/css">
	.st0{fill:#774D10;}
	.st1{fill:#302E29;}
	.st2{fill:none;stroke:#302E29;stroke-width:6;stroke-linejoin:round;stroke-miterlimit:10;}
	.st3{fill:none;stroke:#302E29;stroke-width:7;stroke-linejoin:round;stroke-miterlimit:10;}
	.st4{fill:#FFB000;}
	.st5{fill:none;stroke:#FFB000;stroke-width:7.1621;stroke-linecap:round;stroke-linejoin:round;stroke-miterlimit:10;}
	.st6{fill:#DD9E52;}
	.st7{opacity:0.1;}
	.st8{fill:none;stroke:#E09705;stroke-width:4.7186;stroke-miterlimit:10;}
	.st9{fill:none;stroke:#FFB000;stroke-width:7.0778;stroke-miterlimit:10;}
	.st10{fill:none;stroke:#FFB000;stroke-width:4.7186;stroke-miterlimit:10;}
	.st11{fill:none;stroke:#E09705;stroke-width:4.7186;stroke-linejoin:round;stroke-miterlimit:10;}
	.st12{fill:none;stroke:#FFB000;stroke-width:7.0778;stroke-linejoin:round;stroke-miterlimit:10;}
	.st13{fill:none;stroke:#FFB000;stroke-width:4.7186;stroke-linejoin:round;stroke-miterlimit:10;}
	.st14{fill:#757473;}
	.st15{fill:#636363;}
	.st16{fill:#87E5E8;}
	.st17{opacity:0.7;fill:#FFFFFF;}
</style>
<g>
	<polygon id="XMLID_119_" class="st0" points="5.8,602.9 32,560.5 111.2,580.3 165.5,563.2 246.4,583 290.4,571.3 378.7,583 
		514.8,563.2 632.6,583 736.7,563.2 736.7,602.9 	"/>
	<g>
		<rect id="XMLID_141_" x="241.8" y="384.8" class="st1" width="258.9" height="9.5"/>
		<g>
			<polyline id="XMLID_124_" class="st2" points="253.4,388.4 399.6,237.4 486.1,388.4 			"/>
			<line id="XMLID_135_" class="st3" x1="399.6" y1="125.6" x2="399.6" y2="204.3"/>
			<g id="XMLID_121_">
				<path class="st4" d="M394.1,213.8c-0.6,0-1.1-0.5-1.1-1.1v-14.2c0-0.6,0.5-1.1,1.1-1.1h11.1c0.6,0,1.1,0.5,1.1,1.1v14.2
					c0,0.6-0.5,1.1-1.1,1.1H394.1z"/>
				<path class="st4" d="M405.2,198.5v14.2h-11.1v-14.2H405.2 M405.2,196.3h-11.1c-1.2,0-2.1,1-2.1,2.1v14.2c0,1.2,1,2.1,2.1,2.1
					h11.1c1.2,0,2.1-1,2.1-2.1v-14.2C407.4,197.3,406.4,196.3,405.2,196.3L405.2,196.3z"/>
			</g>
			<path id="XMLID_123_" class="st5" d="M389.6,234.7c0,5.6,4.5,10.1,10.1,10.1c5.6,0,10.1-4.5,10.1-10.1c0-5.6-4.5-10.1-10.1-10.1
				v-16.4"/>
			<g id="XMLID_126_">
				
					<rect id="XMLID_122_" x="253.1" y="300.3" transform="matrix(-1 -1.224647e-16 1.224647e-16 -1 715.6824 628.8624)" class="st6" width="209.4" height="28.3"/>
				
					<rect id="XMLID_125_" x="253.1" y="320.4" transform="matrix(-1 -1.224647e-16 1.224647e-16 -1 715.6824 648.9623)" class="st7" width="209.4" height="8.2"/>
				
					<rect id="XMLID_137_" x="244.7" y="328.6" transform="matrix(-1 -1.224647e-16 1.224647e-16 -1 698.8741 685.4097)" class="st6" width="209.4" height="28.3"/>
				
					<rect id="XMLID_136_" x="244.7" y="348.7" transform="matrix(-1 -1.224647e-16 1.224647e-16 -1 698.8741 705.5095)" class="st7" width="209.4" height="8.2"/>
				
					<rect id="XMLID_140_" x="262.4" y="356.8" transform="matrix(-1 -1.224647e-16 1.224647e-16 -1 734.124 741.9568)" class="st6" width="209.4" height="28.3"/>
				
					<rect id="XMLID_138_" x="262.4" y="376.9" transform="matrix(-1 -1.224647e-16 1.224647e-16 -1 734.124 762.0567)" class="st7" width="209.4" height="8.2"/>
			</g>
			<line id="XMLID_142_" class="st2" x1="399.6" y1="237.4" x2="486.1" y2="388.4"/>
		</g>
	</g>
	<polyline id="XMLID_120_" class="st3" points="52.3,66.5 92.2,12.7 369.7,84.5 	"/>
	<rect id="XMLID_38_" x="32.4" y="63.8" class="st1" width="39.6" height="91.4"/>
	<g id="XMLID_5_">
		<rect id="XMLID_34_" x="5.8" y="602.3" class="st1" width="730.9" height="12"/>
		<g id="XMLID_6_">
			<polygon id="XMLID_33_" class="st4" points="552.5,602.3 533.7,614.3 562,614.3 580.8,602.3 			"/>
			<polygon id="XMLID_32_" class="st4" points="669.6,602.3 650.8,614.3 679.1,614.3 697.9,602.3 			"/>
			<polygon id="XMLID_31_" class="st4" points="376.8,602.3 358.1,614.3 386.4,614.3 405.1,602.3 			"/>
			<polygon id="XMLID_30_" class="st4" points="493.9,602.3 475.2,614.3 503.5,614.3 522.2,602.3 			"/>
			<polygon id="XMLID_29_" class="st4" points="611,602.3 592.3,614.3 620.6,614.3 639.3,602.3 			"/>
			<polygon id="XMLID_28_" class="st4" points="728.1,602.3 709.4,614.3 736.7,614.3 736.7,602.3 			"/>
			<polygon id="XMLID_27_" class="st4" points="435.4,602.3 416.6,614.3 444.9,614.3 463.7,602.3 			"/>
			<polygon id="XMLID_26_" class="st4" points="142.6,602.3 123.9,614.3 152.2,614.3 170.9,602.3 			"/>
			<polygon id="XMLID_25_" class="st4" points="84.1,602.3 65.3,614.3 93.6,614.3 112.4,602.3 			"/>
			<polygon id="XMLID_24_" class="st4" points="25.5,602.3 6.8,614.3 35.1,614.3 53.8,602.3 			"/>
			<polygon id="XMLID_21_" class="st4" points="259.7,602.3 241,614.3 269.3,614.3 288,602.3 			"/>
			<polygon id="XMLID_18_" class="st4" points="318.3,602.3 299.5,614.3 327.8,614.3 346.6,602.3 			"/>
			<polygon id="XMLID_7_" class="st4" points="201.2,602.3 182.4,614.3 210.7,614.3 229.5,602.3 			"/>
		</g>
	</g>
	<g id="XMLID_115_">
		<line id="XMLID_118_" class="st8" x1="72.1" y1="124.2" x2="32.4" y2="84.5"/>
		
			<rect id="XMLID_117_" x="32.4" y="84.5" transform="matrix(-1.836970e-16 1 -1 -1.836970e-16 156.6353 52.104)" class="st9" width="39.7" height="39.7"/>
		<line id="XMLID_116_" class="st10" x1="72.1" y1="84.5" x2="32.4" y2="124.2"/>
	</g>
	<g id="XMLID_111_">
		<line id="XMLID_114_" class="st8" x1="111.8" y1="124.2" x2="72.1" y2="84.5"/>
		
			<rect id="XMLID_113_" x="72.1" y="84.5" transform="matrix(-1.836970e-16 1 -1 -1.836970e-16 196.2966 12.4427)" class="st9" width="39.7" height="39.7"/>
		<line id="XMLID_112_" class="st10" x1="111.8" y1="84.5" x2="72.1" y2="124.2"/>
	</g>
	<g id="XMLID_107_">
		<line id="XMLID_110_" class="st8" x1="151.4" y1="124.2" x2="111.8" y2="84.5"/>
		
			<rect id="XMLID_109_" x="111.8" y="84.5" transform="matrix(-1.836970e-16 1 -1 -1.836970e-16 235.958 -27.2187)" class="st9" width="39.7" height="39.7"/>
		<line id="XMLID_108_" class="st10" x1="151.4" y1="84.5" x2="111.8" y2="124.2"/>
	</g>
	<g id="XMLID_103_">
		<line id="XMLID_106_" class="st8" x1="191.1" y1="124.2" x2="151.4" y2="84.5"/>
		
			<rect id="XMLID_105_" x="151.4" y="84.5" transform="matrix(-1.836970e-16 1 -1 -1.836970e-16 275.6193 -66.88)" class="st9" width="39.7" height="39.7"/>
		<line id="XMLID_104_" class="st10" x1="191.1" y1="84.5" x2="151.4" y2="124.2"/>
	</g>
	<g id="XMLID_99_">
		<line id="XMLID_102_" class="st8" x1="230.7" y1="124.2" x2="191.1" y2="84.5"/>
		
			<rect id="XMLID_101_" x="191.1" y="84.5" transform="matrix(-1.836970e-16 1 -1 -1.836970e-16 315.2807 -106.5414)" class="st9" width="39.7" height="39.7"/>
		<line id="XMLID_100_" class="st10" x1="230.7" y1="84.5" x2="191.1" y2="124.2"/>
	</g>
	<g id="XMLID_95_">
		<line id="XMLID_98_" class="st8" x1="270.4" y1="124.2" x2="230.7" y2="84.5"/>
		
			<rect id="XMLID_97_" x="230.7" y="84.5" transform="matrix(-1.836970e-16 1 -1 -1.836970e-16 354.942 -146.2027)" class="st9" width="39.7" height="39.7"/>
		<line id="XMLID_96_" class="st10" x1="270.4" y1="84.5" x2="230.7" y2="124.2"/>
	</g>
	<g id="XMLID_91_">
		<line id="XMLID_94_" class="st8" x1="310.1" y1="124.2" x2="270.4" y2="84.5"/>
		
			<rect id="XMLID_93_" x="270.4" y="84.5" transform="matrix(-1.836970e-16 1 -1 -1.836970e-16 394.6034 -185.8641)" class="st9" width="39.7" height="39.7"/>
		<line id="XMLID_92_" class="st10" x1="310.1" y1="84.5" x2="270.4" y2="124.2"/>
	</g>
	<g id="XMLID_131_">
		<line id="XMLID_134_" class="st8" x1="349.9" y1="124.2" x2="310.3" y2="84.5"/>
		
			<rect id="XMLID_133_" x="310.3" y="84.5" transform="matrix(-1.836970e-16 1 -1 -1.836970e-16 434.4566 -225.7173)" class="st9" width="39.7" height="39.7"/>
		<line id="XMLID_132_" class="st10" x1="349.9" y1="84.5" x2="310.3" y2="124.2"/>
	</g>
	<g id="XMLID_127_">
		<line id="XMLID_130_" class="st8" x1="389.6" y1="124.2" x2="349.9" y2="84.5"/>
		<polygon id="XMLID_129_" class="st9" points="349.9,124.2 349.9,84.5 389.6,84.5 446.2,124.2 		"/>
		<line id="XMLID_128_" class="st10" x1="389.6" y1="84.5" x2="349.9" y2="124.2"/>
	</g>
	<g id="XMLID_20_">
		<g id="XMLID_4_">
			<line id="XMLID_35_" class="st8" x1="85.2" y1="560.5" x2="45.6" y2="600.1"/>
			<rect id="XMLID_36_" x="45.6" y="560.5" class="st9" width="39.7" height="39.7"/>
			<line id="XMLID_37_" class="st10" x1="45.6" y1="560.5" x2="85.2" y2="600.1"/>
		</g>
		<g id="XMLID_39_">
			<line id="XMLID_42_" class="st8" x1="85.2" y1="520.8" x2="45.6" y2="560.5"/>
			<rect id="XMLID_41_" x="45.6" y="520.8" class="st9" width="39.7" height="39.7"/>
			<line id="XMLID_40_" class="st10" x1="45.6" y1="520.8" x2="85.2" y2="560.5"/>
		</g>
		<g id="XMLID_43_">
			<line id="XMLID_46_" class="st8" x1="85.2" y1="481.2" x2="45.6" y2="520.8"/>
			<rect id="XMLID_45_" x="45.6" y="481.2" class="st9" width="39.7" height="39.7"/>
			<line id="XMLID_44_" class="st10" x1="45.6" y1="481.2" x2="85.2" y2="520.8"/>
		</g>
		<g id="XMLID_55_">
			<line id="XMLID_58_" class="st8" x1="85.2" y1="441.5" x2="45.6" y2="481.2"/>
			<rect id="XMLID_57_" x="45.6" y="441.5" class="st9" width="39.7" height="39.7"/>
			<line id="XMLID_56_" class="st10" x1="45.6" y1="441.5" x2="85.2" y2="481.2"/>
		</g>
		<g id="XMLID_51_">
			<line id="XMLID_54_" class="st8" x1="85.2" y1="401.8" x2="45.6" y2="441.5"/>
			<rect id="XMLID_53_" x="45.6" y="401.8" class="st9" width="39.7" height="39.7"/>
			<line id="XMLID_52_" class="st10" x1="45.6" y1="401.8" x2="85.2" y2="441.5"/>
		</g>
		<g id="XMLID_47_">
			<line id="XMLID_50_" class="st8" x1="85.2" y1="362.2" x2="45.6" y2="401.8"/>
			<rect id="XMLID_49_" x="45.6" y="362.2" class="st9" width="39.7" height="39.7"/>
			<line id="XMLID_48_" class="st10" x1="45.6" y1="362.2" x2="85.2" y2="401.8"/>
		</g>
		<g id="XMLID_67_">
			<line id="XMLID_70_" class="st8" x1="85.2" y1="322.5" x2="45.6" y2="362.2"/>
			<rect id="XMLID_69_" x="45.6" y="322.5" class="st9" width="39.7" height="39.7"/>
			<line id="XMLID_68_" class="st10" x1="45.6" y1="322.5" x2="85.2" y2="362.2"/>
		</g>
		<g id="XMLID_63_">
			<line id="XMLID_66_" class="st8" x1="85.2" y1="282.8" x2="45.6" y2="322.5"/>
			<rect id="XMLID_65_" x="45.6" y="282.8" class="st9" width="39.7" height="39.7"/>
			<line id="XMLID_64_" class="st10" x1="45.6" y1="282.8" x2="85.2" y2="322.5"/>
		</g>
		<g id="XMLID_59_">
			<line id="XMLID_62_" class="st8" x1="85.2" y1="243.2" x2="45.6" y2="282.8"/>
			<rect id="XMLID_61_" x="45.6" y="243.2" class="st9" width="39.7" height="39.7"/>
			<line id="XMLID_60_" class="st10" x1="45.6" y1="243.2" x2="85.2" y2="282.8"/>
		</g>
		<g id="XMLID_79_">
			<line id="XMLID_82_" class="st8" x1="85.2" y1="203.5" x2="45.6" y2="243.2"/>
			<rect id="XMLID_81_" x="45.6" y="203.5" class="st9" width="39.7" height="39.7"/>
			<line id="XMLID_80_" class="st10" x1="45.6" y1="203.5" x2="85.2" y2="243.2"/>
		</g>
		<g id="XMLID_75_">
			<line id="XMLID_78_" class="st8" x1="85.2" y1="163.9" x2="45.6" y2="203.5"/>
			<rect id="XMLID_77_" x="45.6" y="163.9" class="st9" width="39.7" height="39.7"/>
			<line id="XMLID_76_" class="st10" x1="45.6" y1="163.9" x2="85.2" y2="203.5"/>
		</g>
	</g>
	<g id="XMLID_71_">
		<line id="XMLID_74_" class="st8" x1="84.8" y1="124.2" x2="45.2" y2="163.9"/>
		<rect id="XMLID_73_" x="45.2" y="124.2" class="st9" width="39.7" height="39.7"/>
		<line id="XMLID_72_" class="st10" x1="45.2" y1="124.2" x2="84.8" y2="163.9"/>
	</g>
	<g id="XMLID_87_">
		<line id="XMLID_90_" class="st8" x1="111.7" y1="84.5" x2="72" y2="124.2"/>
		<rect id="XMLID_89_" x="72" y="84.5" class="st9" width="39.7" height="39.7"/>
		<line id="XMLID_88_" class="st10" x1="72" y1="84.5" x2="111.7" y2="124.2"/>
	</g>
	<g id="XMLID_83_">
		<line id="XMLID_86_" class="st11" x1="101.7" y1="43.1" x2="72" y2="84.5"/>
		<polygon id="XMLID_85_" class="st12" points="111.7,84.5 72,84.5 92.2,12.7 		"/>
		<line id="XMLID_84_" class="st13" x1="83" y1="43.1" x2="111.7" y2="84.5"/>
	</g>
	<line id="XMLID_145_" class="st9" x1="389.5" y1="84.5" x2="389.5" y2="125.6"/>
	<polygon id="XMLID_144_" class="st14" points="172.9,149.4 68.9,149.4 68.9,81 151,81 	"/>
	<polygon id="XMLID_146_" class="st15" points="172.9,149.4 164.2,162.9 68.9,162.9 68.9,149.4 	"/>
	<polygon id="XMLID_149_" class="st16" points="156.8,135.7 80.1,135.7 80.1,94 144.9,94 	"/>
	<polygon id="XMLID_150_" class="st17" points="80.1,135.7 102.3,94 111.7,94 89.8,135.7 	"/>
	<polygon id="XMLID_153_" class="st17" points="95.9,135.7 118.4,94 121.2,94 	"/>
</g>
</svg>
