<svg id="Layer_1" data-name="Layer 1" xmlns="http://www.w3.org/2000/svg" viewBox="0 0 309.95 309.95"><defs><style>.cls-1{fill:#fff;}.cls-2{fill:#fcfdfd;}.cls-3{fill:#fdfefd;}.cls-4{fill:#fcfdfc;}.cls-5{fill:#fbfcfa;}.cls-6{fill:#fbfcfb;}.cls-7{fill:#fafcfb;}.cls-8{fill:#f9fcfb;}.cls-9{fill:#344858;}.cls-10{fill:#374958;}.cls-11{fill:#3c4b5f;}.cls-12{fill:#384957;}.cls-13{fill:#3b4a57;}.cls-14{fill:#394a59;}.cls-15{fill:#394d5e;}.cls-16{fill:#3c4c58;}.cls-17{fill:#41505a;}.cls-18{fill:#424f57;}.cls-19{fill:#414f59;}.cls-20{fill:#3f4f5b;}.cls-21{fill:#465461;}.cls-22{fill:#4a525c;}.cls-23{fill:#4a5459;}.cls-24{fill:#45505a;}.cls-25{fill:#dae9f1;}.cls-26{fill:#e8f1f5;}.cls-27{fill:#e4eff1;}.cls-28{fill:#e3f3f7;}.cls-29{fill:#e7f3f6;}.cls-30{fill:#e1edf1;}.cls-31{fill:#eaf0f3;}.cls-32{fill:#e0f3f7;}.cls-33{fill:#f1f8fa;}</style></defs><title>dice</title><path class="cls-1" d="M540,404.05a147,147,0,1,1-103.93,43,146,146,0,0,1,103.93-43m0-8A155,155,0,1,0,695,551a155,155,0,0,0-155-155Z" transform="translate(-385.03 -396.05)"/><path class="cls-2" d="M600.88,589.94H501.24c-5.33,0-10.67-.19-16,0-3.9.12-5.05-.31-2.72-4.45,14.88-26.36,29.49-52.87,44.2-79.34,4.52-8.14,9.05-16.27,14.09-25.32Z" transform="translate(-385.03 -396.05)"/><path class="cls-3" d="M534.77,479.66,476.71,584.12l-44.77-97Z" transform="translate(-385.03 -396.05)"/><path class="cls-3" d="M650.22,487.1,604.8,584,547.16,479.68Z" transform="translate(-385.03 -396.05)"/><path class="cls-3" d="M599.6,596.37l-58.22,75.91L482,596.37Z" transform="translate(-385.03 -396.05)"/><path class="cls-4" d="M544.65,422.24l98.83,57.53-.33.83q-28.68-2-57.35-4.1c-12.12-.87-24.23-1.92-36.37-2.58-3.86-.21-5.55-1.18-5.52-5.44.13-14-.15-28-.24-42C543.67,425.23,543.41,423.87,544.65,422.24Z" transform="translate(-385.03 -396.05)"/><path class="cls-5" d="M438.08,479.59c11.51-6.69,22.23-12.94,33-19.16,20.72-12,41.5-23.89,62.15-36,3.74-2.19,4.69-1.66,4.67,2.62-.09,14.16.05,28.32.12,42.48,0,2.2.3,4.22-3.06,4.43-31.73,2-63.45,4.06-95.18,6.11A12,12,0,0,1,438.08,479.59Z" transform="translate(-385.03 -396.05)"/><path class="cls-4" d="M651,502.11q0,6.15,0,12.3c-.05,30.14-.18,60.29-.08,90.43,0,4.21-.87,4.89-4.67,3.11q-16.91-7.94-34-15.4c-2.44-1.07-3.18-2-2-4.62C623.16,559.13,636.36,530.46,651,502.11Z" transform="translate(-385.03 -396.05)"/><path class="cls-6" d="M432.09,502.75q6.43,13.92,12.85,27.85c8.67,18.68,17.31,37.38,26.12,56,1.39,2.94,1.54,4.44-1.87,5.91-11.44,4.93-22.76,10.16-34.1,15.33-2.57,1.17-4.15,1.56-4.13-2.34.1-34.12.06-68.23.06-102.35Z" transform="translate(-385.03 -396.05)"/><path class="cls-7" d="M557.25,662.31q17.41-23,34.83-46.09c4.32-5.71,8.7-11.37,13.08-17,.84-1.09,1.3-2.76,3.44-1.77,11.41,5.27,22.87,10.44,35.66,16.26l-86.18,49.4Z" transform="translate(-385.03 -396.05)"/><path class="cls-8" d="M438.21,613.51c12-5.54,23-10.53,33.9-15.76,2.62-1.25,3.44.15,4.72,1.83q20.65,27.18,41.4,54.28a47.54,47.54,0,0,1,6,9.3Z" transform="translate(-385.03 -396.05)"/><path class="cls-9" d="M564.37,554.49c-.23,4.47-.21,8.31-2,11.85-2.13,4.17-5.2,6.67-10.11,6.84a10.08,10.08,0,0,1-10.29-6.39,26.44,26.44,0,0,1-.31-21.3c2.23-5.46,6.94-8.12,12.24-7.52,5.55.63,8.3,4.32,9.83,9.27A23.54,23.54,0,0,1,564.37,554.49Z" transform="translate(-385.03 -396.05)"/><path class="cls-10" d="M524.62,572.24a17.73,17.73,0,0,1-2.49,0c-2.61-.37-6.21,1.71-7.55-1.82a9.72,9.72,0,0,1,2.52-10.59c2.84-2.78,6.2-5,9.27-7.56,2.25-1.86,4.47-4.1,2.55-7.14-2.06-3.26-4.92-2.16-7.91-.8-1.94.88-4.37,4.77-6.11,1.55-1.48-2.74,2.24-4.65,4.64-6,4.9-2.68,11.58-1.45,14,2.36,2.53,4,1.11,9.4-3.47,13.19-3.07,2.53-6.18,5-9.15,7.65-1.07.95-2.43,2.17-1.66,3.84.7,1.52,2.35.8,3.59.86,3,.13,6,.07,9,.17,1.67.05,3.07.76,2.9,2.65s-1.73,1.7-3.09,1.7h-7Z" transform="translate(-385.03 -396.05)"/><path class="cls-11" d="M478.51,524.74c2.42-2,4.78-4.1,7.23-6,1-.82,2.45-1.67,3.49-.28.83,1.1-.17,2.16-1,3-1.82,1.7-3.54,3.52-5.51,5-1.58,1.21-2.66,4-5.29,2.71a7.66,7.66,0,0,1-4.06-6,24.09,24.09,0,0,1,.21-4.93c.18-2.81.45-5.61.55-8.42a3,3,0,0,0-2.44-3.31,3.62,3.62,0,0,0-3.79,1.84c-.37.54-.53,1.22-.91,1.75-1.09,1.52.07,5.5-2.94,4.43-2.33-.83-.82-4.11-.11-6.21,1.41-4.22,5.32-6.79,9.23-5.72s5.1,4.41,4.93,8.17c-.1,2.31-.67,4.6-.8,6.91S476.13,522.59,478.51,524.74Z" transform="translate(-385.03 -396.05)"/><path class="cls-12" d="M605,527.88c-1.86-.49-2.35,2.41-4,3.54-.81.56-1.59,1.59-2.56,1a1.72,1.72,0,0,1-.24-2.65c4.82-4.62,1.07-7.19-2.2-10-1.18-1-3.27-1.87-2.78-3.71s2.65-1.66,4.18-2.11c4.59-1.37,9.19-2.76,13.83-3.94,1.5-.38,3.45-1,4.52.8,1,1.62-.54,2.76-1.37,3.91-1.65,2.27-3.34,4.52-5.11,6.7-1.07,1.32-2,2.33-.93,4.33C609.55,527.91,608.84,529.31,605,527.88Z" transform="translate(-385.03 -396.05)"/><path class="cls-13" d="M593.62,496.07c2,.28,4.35-.49,5.12,1.43.62,1.56-1.29,2.9-2.32,4.13-3,3.56-6.11,7-9.07,10.53-1.36,1.64-3.72,3.1-1.56,5.88a1.23,1.23,0,0,1-1.22,2c-3.51-.59-5.71-3.2-7.61-5.87-.76-1.07.74-1.92,1.64-1.52,3.32,1.51,4.33-1.07,5.87-2.94,1.68-2,3.52-4,5.2-6,1.21-1.47,2.68-2.18.6-5S592.27,496.67,593.62,496.07Z" transform="translate(-385.03 -396.05)"/><path class="cls-14" d="M539.42,639.7c-8.43,0-11.63-5.36-7.87-11.74a4.86,4.86,0,0,0,.29-5.36c-1.64-3.32-.52-6.21,2.55-8.15,3.34-2.11,7.08-2.56,10.25-.13s3.17,5.78,1,8.91c-.92,1.35-1.18,2.06.07,3.28a7,7,0,0,1,1.5,8.68A8.66,8.66,0,0,1,539.42,639.7Z" transform="translate(-385.03 -396.05)"/><path class="cls-15" d="M585.95,471.08c-.41-.24-1.06-.39-1.2-.74-2-5.06-5.36-7.25-11-6.62-3.28.37-5.26-1.4-4-5.33,1-3.14,1.49-6.44,2.19-9.67.25-1.13.35-2.43,1.78-2.67s2.44.8,3.09,2c1.32,2.48,2.59,5,3.88,7.49.61,1.17,1,3.05,1.88,3.4,6.49,2.44,1.37,8.48,4.84,11.74Z" transform="translate(-385.03 -396.05)"/><path class="cls-16" d="M504.29,471.07c-2-.08-3.71.29-4.51-1.34s.19-2.92,1.13-4c4-4.85,8.92-8.92,12.57-14.22,2.26-3.29,6.52-4.48,10.56-5.06,1.31-.19,2.77-.05,3.57,1.23s0,2.34-.74,3.18a87.47,87.47,0,0,0-9.38,13.31C514.65,468.76,509.48,470.92,504.29,471.07Z" transform="translate(-385.03 -396.05)"/><path class="cls-17" d="M483.79,470.23c7.35-2.8,10.23-9.86,15.15-14.8.7-.71,2.41-2-.59-2.26-.72-.05,0-1.43.7-1.86a35.39,35.39,0,0,1,10-4.61c-4,6.67-8.93,11.48-13.12,16.89-1.07,1.38-3.38,2.3-1.95,4.93.75,1.39-.89,2.11-1.91,2.25C489.37,471.14,486.62,471.57,483.79,470.23Z" transform="translate(-385.03 -396.05)"/><path class="cls-18" d="M646.62,575.45c-2.74-2.53-.6-6.15-2.37-9.17-2.35,1.81-4.53,4.6-8,3.42-2.65-.9-4.23-3.2-5.34-5.6a7.06,7.06,0,0,1,1.49-8.25c2.15-2.28,4.63-2.15,7.27-.94C646.19,557.88,649.84,568.41,646.62,575.45Z" transform="translate(-385.03 -396.05)"/><path class="cls-19" d="M446.3,561c-1.85-.4-3.79-.86-5.75-1.23s-3.75-.41-4.6,1.76c-.78,2,0,3.49,1.85,4.57,1.14.65,3.39,1.09,1.78,3.12-1.22,1.54-2.89.47-4.05-.31-2.66-1.78-3.19-4.51-2.64-7.5a6.28,6.28,0,0,1,5.26-5.3,9.35,9.35,0,0,1,3.46.06c7.62,1.33,7.63,1.35,5.17-6-.42-1.27-1.22-2.86.17-3.63,1.83-1,2,1.15,2.6,2.11a31,31,0,0,1,2.11,4C453.66,556.89,451.13,560.92,446.3,561Z" transform="translate(-385.03 -396.05)"/><path class="cls-20" d="M456.35,568.17c-3.35,0-10.5,6.9-10.51,10.35,0,1.27-.57,2.12-1.56,2.09-1.62,0-3.42-.26-4.63-1.47-1-1,.06-1.82.76-2.46q4.8-4.36,9.67-8.65c1.51-1.33,3-2.59,3.53-4.68.21-.89,0-2.53,1.19-2.33,2.29.38,2.34,2.9,3.31,4.52.49.81,1,1.74,0,2.68C457.47,568.84,456.94,568.4,456.35,568.17Z" transform="translate(-385.03 -396.05)"/><path class="cls-21" d="M594.27,625.86c4.41.22,8.53,1.08,10.85,5.47.44.84,1.15,1.87,0,2.58a1.63,1.63,0,0,1-2.45-.91c-1.34-3.55-3.08-2.7-5.27-.75-2.58,2.29-5.79,2.19-8.94,1.73-1.65-.24-3.58-.81-3.92-2.56-.4-2.07,1.52-3.22,3.08-4A11.42,11.42,0,0,1,594.27,625.86Z" transform="translate(-385.03 -396.05)"/><path class="cls-22" d="M593.25,623.6c3.2-3.54,4.46-6.33,9-3.09,2.47,1.77,6.79,3.62,10.75,1.56,1.36-.71,2.23-.13,2.43,1.35.24,1.73-1,2-2.2,1.83a47.86,47.86,0,0,1-6.35-1C602.81,623.19,598.78,622.4,593.25,623.6Z" transform="translate(-385.03 -396.05)"/><path class="cls-23" d="M481.49,630c-5.57,0-11.55-3.45-10.91-6.69,1.09-5.49,6.22-4.37,10.09-5.17a2.78,2.78,0,0,1,.5,0c5.26-.11,10.49,3,10.7,6.34C492.07,627.64,487.59,630,481.49,630Z" transform="translate(-385.03 -396.05)"/><path class="cls-24" d="M479.58,635.11c5-1.13,9.42-1.74,13.58-3.2,4.47-1.57,4.35-1.92,7.16,3.57-4.7-1.89-9.07-.88-13,.72S483.58,638.4,479.58,635.11Z" transform="translate(-385.03 -396.05)"/><path class="cls-7" d="M560,554.13c-.39,2.89-.54,5.57-1.15,8.15-.84,3.48-3,6.16-6.71,6.48-4.1.35-6.15-2.72-6.81-6.06-1-5-1.85-10.26.59-15.19,1.46-3,3.47-5.29,7.3-4.88s5.34,2.92,6,6.31C559.48,550.73,559.74,552.53,560,554.13Z" transform="translate(-385.03 -396.05)"/><path class="cls-25" d="M610.14,514.36c-1.67,2.07-3,3.72-4.33,5.37-.87,1.08-1.77,2.15-3.22.89-.95-.83-2.67-1.19-2.54-2.74.11-1.3,1.65-1.47,2.65-1.77C604.87,515.43,606.91,514.2,610.14,514.36Z" transform="translate(-385.03 -396.05)"/><path class="cls-26" d="M538.8,627.08c2.58.6,4.88,1.83,5.06,4.68s-1.91,4.66-4.72,4.69c-2.45,0-5.19-.29-5.24-3.83C533.85,629.32,536.2,628.13,538.8,627.08Z" transform="translate(-385.03 -396.05)"/><path class="cls-27" d="M539,623.16c-2-.29-3.92-.81-3.9-3.06,0-2.46,1.66-3.86,4.15-3.93,2.33-.07,3.85,1.09,3.76,3.52S540.86,622.7,539,623.16Z" transform="translate(-385.03 -396.05)"/><path class="cls-28" d="M575.32,453a11,11,0,0,1,2.74,4.57c.4,1,1.88,2.45-.7,2.7-1.43.14-3.17.45-3.35-1.68A7.41,7.41,0,0,1,575.32,453Z" transform="translate(-385.03 -396.05)"/><path class="cls-29" d="M515.16,461.84c-.24,2.89-6.91,7-9.84,6.15a1.39,1.39,0,0,1-1.16-1.78c.33-2.34,7-6.82,9.45-6.35C515,460.12,515.27,460.5,515.16,461.84Z" transform="translate(-385.03 -396.05)"/><path class="cls-30" d="M523.23,451c-.23,2.15-6.1,5.74-8,4.85a1.36,1.36,0,0,1-.85-1.56c.29-2.11,6.15-5.71,8-4.83A1.24,1.24,0,0,1,523.23,451Z" transform="translate(-385.03 -396.05)"/><path class="cls-31" d="M642,561.82c-.42,2.5-1.88,4.21-4.21,4.23-3,0-4.17-2.58-4.48-5a3.21,3.21,0,0,1,3.31-3.58C639.28,557.53,641,559.4,642,561.82Z" transform="translate(-385.03 -396.05)"/><path class="cls-32" d="M591.24,632.11c-1.09-.46-3.7.63-3.08-1.68.68-2.56,3.54-2.29,5.77-2.36,1.06,0,3-.33,2.74,1.05C596.19,631.87,593.69,632.15,591.24,632.11Z" transform="translate(-385.03 -396.05)"/><path class="cls-33" d="M482,620.6a12.43,12.43,0,0,1,3.48.53c1.29.6,3,1.29,3,3s-1.81,2.28-3.17,2.61c-2.72.65-5.55,1.37-8.3.35-1.52-.56-3.26-1.48-3.16-3.39.1-1.75,1.95-2.12,3.32-2.47A35.74,35.74,0,0,1,482,620.6Z" transform="translate(-385.03 -396.05)"/></svg>