<?xml version="1.0" encoding="utf-8"?>
<!-- Generator: Adobe Illustrator 21.1.0, SVG Export Plug-In . SVG Version: 6.00 Build 0)  -->
<svg version="1.1" xmlns="http://www.w3.org/2000/svg" xmlns:xlink="http://www.w3.org/1999/xlink" x="0px" y="0px"
	 viewBox="0 0 270 286" style="enable-background:new 0 0 270 286;" xml:space="preserve">
<style type="text/css">
	.st0{fill:none;}
	.st1{fill:#FF3F59;}
	.st2{fill:#F8F1BA;}
	.st3{fill:#3889E8;}
	.st4{fill:#1B0700;}
	.st5{fill:#FFFFFF;}
	.st6{fill:#FF929B;}
</style>
<g id="objects_1_">
	<g>
		
			<rect x="3.4" y="24.2" transform="matrix(0.1102 -0.9939 0.9939 0.1102 -35.5138 263.5878)" class="st0" width="252" height="254.9"/>
		<g>
			<path class="st1" d="M166.4,187.1c5,2.8,11.6,4,19,4.2c0,0,0,0,0,0c6.1,0.2,12.7-0.3,19.4-1.1c6-0.7,12-1.8,17.6-2.8
				c16.7-3.2,30.3-6.8,31.6-5c3.1,4.4-23,29.3-38.1,40.2c-13.9,10-41,19.2-68.6,23l0,0C60,242.6,107.3,110,107.3,110
				c-10-1.1-18.2-2-18.2-2s-54.5-6-70.4-15.9c-15.9-9.8-4.2-55.2,9.4-68.4c13.6-13.3,102.1,0.5,109.8,8.6c2.9,3.1,4.9,10.9,6.4,21.6
				c0,0,0,0,0,0c0.9,6.5,1.6,14,2.3,22c0,0,0,0,0,0c0.5,6.4,1,13.1,1.4,20c-0.3,0.3-0.5,0.4-0.5,0.4s0.2,0.1,0.5,0.4
				c0.5,7.1,0.9,14.3,1.4,21.4c0.4,6.5,0.9,12.9,1.5,19c0.6,7,1.4,13.5,2.2,19.5c0.9,5.8,1.8,11,3,15.3c0.9,3.2,1.8,5.9,2.9,8.1
				C160.7,183,163.2,185.3,166.4,187.1z"/>
			<path class="st2" d="M143.4,245.9c-3,0.4-6,0.6-9,0.8c-8.8,0.6-17.5,0.6-25.6-0.2c-3.1-0.3-6.1-0.7-9-1.3
				c-11.7-2.2-21.8-6.3-28.8-13C35.4,198.8,89.2,108,89.2,108s8.2,0.9,18.2,2c0,0-47.4,132.6,39.9,135.4l0,0
				C146,245.6,144.7,245.8,143.4,245.9z"/>
			<g>
				<path class="st3" d="M211.3,177.1c-3.4,0.3-6.5,13-6.5,13c6-0.7,12-1.8,17.6-2.8C222.4,187.3,214.7,176.9,211.3,177.1z"/>
				<path class="st3" d="M195.2,176.9c-6.6,0.3-9.6,13.8-9.8,14.4c6.1,0.2,12.7-0.3,19.4-1.1C204.8,190.1,202,176.6,195.2,176.9z"/>
				<path class="st3" d="M176.3,175.8c-4.9,0.3-9.6,10.6-9.9,11.3c0.2-0.7,3.4-10.9,0-14.2c-3.3-3.2-9.6-1.3-10.1-1.1
					c0.6-0.4,8.1-5.7,6.5-10.9c-1.6-5.4-9.6-4.4-9.6-4.4s8.2-4.7,6.8-11.2c-1.5-6.6-9-8.3-9-8.3c0.6,7,1.4,13.5,2.2,19.5
					c0.9,5.8,1.8,11,3,15.3c0.9,3.2,1.8,5.9,2.9,8.1c1.6,3.1,4,5.5,7.2,7.3c5,2.8,11.6,4,19,4.2c0,0,0,0,0,0
					C185.3,190.6,181.3,175.5,176.3,175.8z"/>
				<path class="st3" d="M158.9,126.8c-1.3-6.2-9.4-8.8-9.4-8.8c0.4,6.5,0.9,12.9,1.5,19C151,137,160.2,133,158.9,126.8z"/>
				<path class="st3" d="M157.1,109.4c-0.2-6.1-7-11.4-9-12.8c0.5,7.1,0.9,14.3,1.4,21.4C149.5,118,157.4,116.5,157.1,109.4z"/>
				<path class="st3" d="M146.7,75.9c0.5,6.4,1,13.1,1.4,20c1.9-1.6,8.7-7.5,8.7-10.8C156.9,81.4,147.1,76.1,146.7,75.9z"/>
				<path class="st3" d="M153.2,63.3c-0.3-5.9-8.4-9.3-8.8-9.5c0.9,6.5,1.6,14,2.3,22c0,0,0,0,0,0C147,75.5,153.5,69.2,153.2,63.3z"
					/>
			</g>
			<path class="st1" d="M108.7,246.5L108.7,246.5c-5.2,21.2-2.8,25.6-3.2,28.6c-0.1,1.3-20.8-2.3-20.8-2.3
				c1.8-4.2,12.2-3.1,12.2-3.1l2.7-24.2l0-0.3C102.6,245.8,105.7,246.2,108.7,246.5z"/>
			<path class="st1" d="M149.9,273.8c0.2,1.5-24,2.8-24,2.8c1-5.2,13-6.7,13-6.7l-3.2-27.8c3.5-0.2,6.9-0.6,10.4-1
				C145.7,266,149.5,270.3,149.9,273.8z"/>
		</g>
		<path class="st1" d="M73.8,138.9c0,0-3.6-9.8-15.9-7.8c-12.3,2-11.2,24.8-8.2,26c2.3,0.9,2.3-7.4,2.3-7.4s1.6,8.5,4.5,8.1
			c0.6-0.1,0.3-9.2,0.3-9.2s2.9,8.9,4.5,7.7c1.6-1.2-3.2-15.3-1.3-17.2c4.1-4.2,10.5,7.6,10.5,7.6"/>
		<path class="st4" d="M34.5,63.2c1.8-1.1-1.7-9.3-4.6-7.2C27,58,32.7,64.4,34.5,63.2z"/>
		<ellipse transform="matrix(0.1102 -0.9939 0.9939 0.1102 20.6281 143.806)" class="st4" cx="90.6" cy="60.4" rx="4" ry="4"/>
		<path class="st1" d="M109.1,148.3c0,0-5.7-13.4-18-11.4c-12.3,2-11.2,24.8-8.2,26c2.3,0.9,2.3-7.4,2.3-7.4s1.6,8.5,4.5,8.1
			c0.6-0.1,0.3-9.2,0.3-9.2s2.9,8.9,4.5,7.7c1.6-1.2-3.2-15.3-1.3-17.2c4.1-4.2,10.2,5.5,10.2,5.5"/>
		<g>
			<path class="st5" d="M33.5,75.8c0,0-7.9,7.4-10.5,6.9c-2.6-0.5-4.6-9.7-4.7-10.1C22.2,73.5,27.4,74.7,33.5,75.8z"/>
			<path class="st5" d="M50.7,78.8c-0.4,0.4-7.3,6.8-10.3,5.8c-2.9-1-6.7-8.3-6.9-8.8C38.8,76.9,44.6,77.9,50.7,78.8z"/>
			<path class="st5" d="M50.7,78.8c5.3,0.8,10.8,1.4,16.2,1.8l0,0.1c0,0-1.4,8.2-6,7.7C56.3,88,51,79.3,50.7,78.8z"/>
			<path class="st5" d="M85.3,80.9c0,0-3.5,7.2-7.3,7.2c-3.8,0-11.1-7.3-11.1-7.3l0-0.1C73.4,81.2,79.7,81.3,85.3,80.9z"/>
		</g>
		<path class="st1" d="M50,78.8c0,0-0.2,0-0.5-0.1c-0.2,0-0.3,0-0.3,0C49.6,78.7,50,78.7,50,78.8c0.4,0,1.1,0.1,1.4,0.1
			c0,0,0.4,0.1,0.8,0.1c0.1,0,0,0-0.3,0c-0.3,0-0.5-0.1-0.5-0.1L50,78.8z"/>
		
			<ellipse transform="matrix(0.1102 -0.9939 0.9939 0.1102 19.9335 173.6984)" class="st6" cx="107" cy="75.7" rx="10.6" ry="10.6"/>
		<path class="st4" d="M11,70c0,0,5.9,1.1,14.7,2.7c2.2,0.4,4.6,0.8,7.1,1.2c2.5,0.4,5.2,0.9,8,1.3c2.8,0.4,5.6,0.9,8.5,1.3
			c2.9,0.4,5.9,0.8,8.8,1.2c5.9,0.7,11.9,1.2,17.4,1.4c2.8,0.1,5.5,0.1,8,0.1c2.5-0.1,4.9-0.2,7.1-0.5c2.2-0.3,4.2-0.6,5.9-1.1
			c1.7-0.4,3.1-1,4.3-1.6c0.5-0.3,1-0.6,1.4-0.8c0.4-0.2,0.7-0.5,1-0.7c0.5-0.4,0.8-0.6,0.8-0.6l0.1-0.1c0.3-0.2,0.8-0.2,1,0.1
			c0.2,0.3,0.2,0.7-0.1,1c0,0-0.3,0.3-0.8,0.8c-0.3,0.2-0.6,0.6-1,0.9c-0.4,0.3-1,0.6-1.5,1c-1.2,0.7-2.7,1.4-4.5,2
			c-1.8,0.6-3.9,1.1-6.1,1.5c-2.3,0.4-4.7,0.6-7.3,0.8C81.2,82,78.4,82,75.6,82c-2.8,0-5.8-0.2-8.7-0.4c-3-0.2-6-0.5-9-0.8
			c-3-0.3-6-0.7-8.9-1.1c-2.9-0.4-5.8-0.9-8.6-1.4c-2.8-0.5-5.5-1-8-1.5c-2.5-0.6-4.9-1.1-7.1-1.6c-4.4-1-8-2-10.6-2.6
			c-2.5-0.7-4-1.1-4-1.1c-0.4-0.1-0.6-0.5-0.5-0.9C10.3,70.2,10.7,70,11,70z"/>
	</g>
</g>
<g id="DESIGNED_BY_FREEPIK">
</g>
</svg>
