<?xml version="1.0" encoding="utf-8"?>
<!-- Generator: Adobe Illustrator 21.1.0, SVG Export Plug-In . SVG Version: 6.00 Build 0)  -->
<svg version="1.1" id="Calque_1" xmlns="http://www.w3.org/2000/svg" xmlns:xlink="http://www.w3.org/1999/xlink" x="0px" y="0px"
	 viewBox="0 0 100.3 102.3" style="enable-background:new 0 0 100.3 102.3;" xml:space="preserve">
<style type="text/css">
	.st0{fill:#322B3D;}
	.st1{fill:#535066;}
	.st2{fill:#BAB9C2;}
</style>
<g>
	<path class="st0" d="M5.5,24.2c0,0-3.3,1.7-3.3,4.6c0,0-0.4,3.7,5.9,4.1l34.5,3.7l6.6,0.8l15.1,15.1l1.5,8l3.8,35.6
		c0,0,0.4,3.9,4.1,4.1c0,0,3.3,0.4,4.5-4.5l14.5-35.9c0,0,6.9-13.4-8.8-20.9l-9-9c0,0,6.7-8.9,15.7-2c0,0,4.7,3.2,3.7,9l1.2,0.1
		c0,0,1.4-6.6-3.6-10.9c0,0-7.3-8-19,2l-9.3-9.4c0,0-4.6-15.9-23.3-8.4L5.5,24.2z"/>
	<circle class="st1" cx="48.9" cy="23.1" r="15.6"/>
	<circle class="st1" cx="80" cy="53.6" r="15.6"/>
	<g>
		<circle class="st2" cx="45" cy="19.1" r="3.3"/>
		<circle class="st2" cx="45" cy="27" r="3.3"/>
		<circle class="st2" cx="53.2" cy="27" r="3.3"/>
		<circle class="st2" cx="53.2" cy="19.1" r="3.3"/>
	</g>
	<g>
		<circle class="st2" cx="75.4" cy="49.7" r="3.3"/>
		<circle class="st2" cx="75.4" cy="57.6" r="3.3"/>
		<circle class="st2" cx="83.7" cy="57.6" r="3.3"/>
		<circle class="st2" cx="83.7" cy="49.7" r="3.3"/>
	</g>
</g>
</svg>
