<?xml version="1.0" encoding="utf-8"?>
<!-- Generator: Adobe Illustrator 21.0.2, SVG Export Plug-In . SVG Version: 6.00 Build 0)  -->
<svg version="1.1" id="Layer_1" xmlns="http://www.w3.org/2000/svg" xmlns:xlink="http://www.w3.org/1999/xlink" x="0px" y="0px"
	 viewBox="0 0 400 255" style="enable-background:new 0 0 400 255;" xml:space="preserve">
<style type="text/css">
	.st0{fill:#355C8A;}
	.st1{fill:none;}
	.st2{fill:#3C618E;}
	.st3{fill:#3B618E;}
	.st4{fill:#305B8B;}
	.st5{fill:#325988;}
	.st6{fill:#2F5585;}
	.st7{fill:#315989;}
	.st8{fill:#2E5787;}
	.st9{fill:#295283;}
	.st10{fill:#2D5585;}
	.st11{fill:#164478;}
	.st12{fill:#3C628E;}
	.st13{fill:#57779D;}
	.st14{fill:#A5AFC3;}
	.st15{fill:#D4F2FD;}
	.st16{fill:#FED864;}
	.st17{fill:#FD666E;}
	.st18{fill:#FEFEFD;}
	.st19{fill:#D2F1FC;}
	.st20{fill:#B6E5FA;}
	.st21{fill:#A3AEC4;}
	.st22{fill:#C8DBF5;}
	.st23{fill:#B5E5FA;}
	.st24{fill:#A4E09B;}
	.st25{fill:#C8DAF5;}
	.st26{fill:#A5AFC4;}
	.st27{fill:#77A6DC;}
	.st28{fill:#FCFDFC;}
	.st29{fill:#798BB3;}
	.st30{fill:#D6F2FC;}
	.st31{fill:#7689B1;}
	.st32{fill:#345987;}
	.st33{fill:#FCFDFD;}
	.st34{fill:#CADCF5;}
	.st35{fill:#788AB2;}
	.st36{fill:#B7E7FA;}
	.st37{fill:#A6E29C;}
	.st38{fill:#E64A69;}
	.st39{fill:#A6B0C4;}
	.st40{fill:#265183;}
	.st41{fill:#456792;}
	.st42{fill:#778AB2;}
	.st43{fill:#F2F4F7;}
	.st44{fill:#E7ECF0;}
	.st45{fill:#FEFEFE;}
	.st46{fill:#FD656D;}
	.st47{fill:#FCFCFC;}
	.st48{fill:#FCD265;}
	.st49{fill:#EED366;}
	.st50{fill:#FCD165;}
	.st51{fill:#A4AEC4;}
	.st52{fill:#FAFAFB;}
	.st53{fill:#7F8BAB;}
	.st54{fill:#FBD164;}
	.st55{fill:#F6F7F8;}
	.st56{fill:#F8F7F1;}
	.st57{fill:#F6F6F4;}
	.st58{fill:#A4DCFD;}
	.st59{fill:#EA4A69;}
	.st60{fill:#A4DF9B;}
	.st61{fill:#F9FAFA;}
	.st62{fill:#FBFBFC;}
	.st63{fill:#FAFBFC;}
	.st64{fill:#F4F7FA;}
	.st65{fill:#E8F0ED;}
	.st66{fill:#F7FAFD;}
	.st67{fill:#F1F5F8;}
	.st68{fill:#FAFCFC;}
	.st69{fill:#FBFCFC;}
	.st70{fill:#78A7DC;}
	.st71{fill:#A9B2C6;}
	.st72{fill:#AAB3C6;}
	.st73{fill:#F5F6F5;}
	.st74{fill:#D6F2FB;}
	.st75{fill:#385F8C;}
	.st76{fill:#305685;}
	.st77{fill:#335A89;}
	.st78{fill:#FAFCFD;}
	.st79{fill:#E3EDF3;}
	.st80{fill:#97A5BE;}
	.st81{fill:#375D8B;}
	.st82{fill:#D4F2FC;}
	.st83{fill:#E8F3F7;}
</style>
<path class="st0" d="M303.4,235.4c2.7-9,1.7-16.7,1-25.4c0-0.5-0.9-2-1.3-2.6c-3.6-5.5-9.1-3.5-14-3.6c-8.3-0.2-11.3,2.9-11.1,11.1
	c-3.9,1.1-7.9,0.5-11.9,0.4c-2.1-4.7-7.2-2.3-10.4-4.4c-1.8-3.1,0.2-6.7-1.2-10.1c-1.4,3.4,0.8,7.1-1.5,10.1c-3.7-1.4-5-4.2-4.6-8
	c0.2-1.7,0.1-3.6-1.3-5c-16.7,0-33.3,0-50,0c-0.3,0.7-0.1,1.2,0.6,1.4c14.2,0.1,28.4,0,42.6,0.1c1.6,0,3.3-0.6,4.8,0.6
	c0,2.8-0.2,5.6,0,8.3c0.1,2-0.6,2.7-2.5,2.4c-0.6-0.3-1.1-0.3-1.7,0c-1.9,4.8-1.7,9.5,0.1,14.4c2.6-1.3,2-3.8,3.1-5.3
	c0.3-0.4,0.7-0.8,1.2-1.1c10.1-0.8,20.2-0.6,30.3-0.1c3.6,0.2,5.9-0.4,5.9-4.6c0-1.3,0.1-2.6,1-3.7c3.3-4.4,8.1-2.9,12.4-3
	c3.9-0.1,5.7,2.1,5.8,5.9c0.1,4.8,0.2,9.6,0,14.5c-0.1,2.6-1,4.9-3.9,5.7c-4.9-0.3-10.2,1.9-14.3-2.7c-0.5-0.7-1-1.4-0.9-2.2
	c0.2-4.6-2.4-6-6.5-5.9c-1,0-2-0.1-2.9-0.2c-4.1-0.2-8.2-0.2-12.3-0.1c-5.4,0.2-10.9-0.9-16.2,0.9c-0.9,3.3,1.8,2.8,3.3,2.9
	c4.1,0.3,8.3,0.1,12.4,1.2c4.9,0.3,5.4,1.2,3,5c-0.6,1-1.5,1.7-1.6,3c0.1,0.5,0.3,1,0.7,1.4c0.7,0.6,1.5,0.7,2.4,0.7
	c14.4,0,28.7,0,43.1-0.1c1.4,0,3.8,1.4,4.3-1.5C308.2,235.7,305.4,235.5,303.4,235.4z M272.7,235.6c-2.4,0-4.8,0-7.8,0
	c0.9-1.8,1.8-3,2.2-4.3c0.6-1.6-0.9-4.4,1-5c2.6-0.8,5.6-0.3,8.4-0.3c1.3,0,1.5,1.1,1.4,2.1c-0.2,2.5,0.1,4.9,1.9,7.4
	C277.5,235.6,275.1,235.6,272.7,235.6z"/>
<path class="st1" d="M188.1,105c0.9-1,1.9-2,2.9-3C189.9,102.9,188.9,103.9,188.1,105z"/>
<path class="st1" d="M226,86.5c-2.7,0-5.9,0-9.3,0C220,86.6,223.2,86.7,226,86.5z"/>
<path class="st1" d="M193.8,99.2c-1,0.9-1.9,1.9-2.9,2.8C192,101.1,193,100.2,193.8,99.2z"/>
<path class="st1" d="M205.1,86.5c0,0.1-0.1,0.1-0.2,0.2c1-0.1,2.1-0.2,3.1-0.2C207,86.5,206,86.5,205.1,86.5z"/>
<path class="st1" d="M208,86.5c3,0,5.9,0,8.7,0C213.9,86.4,211,86.4,208,86.5z"/>
<path class="st1" d="M243.1,76.5c1.5,0,3,0.3,4.4-0.2c-2.6,0.1-5.3,0.1-7.9,0.2C240.8,76.5,242,76.5,243.1,76.5z"/>
<path class="st1" d="M202.8,76.6c2.6,0,5.2-0.1,7.8-0.1c-2.8,0-5.7,0-8.5,0C202.4,76.6,202.6,76.6,202.8,76.6z"/>
<path class="st1" d="M243.2,86.5c9.3,0.1,18.6,0,27.9,0.1c0.2,0,0.4,0,0.7,0C262.2,86.4,252.7,86.5,243.2,86.5z"/>
<path class="st1" d="M226.2,76.5c4.5,0.1,8.9,0,13.4-0.1c-6,0-12,0-17.9,0C223.2,76.5,224.7,76.5,226.2,76.5z"/>
<path class="st1" d="M271.8,86.5c0.7,0,1.4,0,2.1,0c0.3,0,0.5,0,0.7,0C273.7,86.4,272.7,86.5,271.8,86.5z"/>
<path class="st1" d="M199,74.4c1.6-1,3.6-0.6,5.4-0.7c1-0.1,2.3,0.2,2.5-1c0.3-1.3-0.9-2-1.9-2.6c-2.7-1.6-9-0.9-11.9,1.3
	c-6,4.6-7.1,11.8-2.8,18.1c0.8,1.2,2.1,2.1,2.8,3.5c-0.7,2,2.2,1.6,2.2,3.1c-0.3,1.2-0.8,2.2-1.5,3.1c4-3.9,8-7.8,11.1-12.5
	c-1.1,0.1-2.1,0.2-3.2,0.4c-1.4,0.2-3.9,0.5-3.5-2.5c2.4-1.6,5.1-1.2,7.8-1.2c20.3,0,40.6,0,60.9-0.1c2.3,0,6.3,1.1,6.4-1.8
	c0.1-3-3.9-1.9-6.2-1.9c-20.1-0.1-40.3,0-60.4-0.1c-2.6,0-5.4,0.4-7.7-1.4c0.1-0.9,0.3-1.3,0.7-1.6c0,0,0,0,0,0
	C197.5,76.5,197.1,75.6,199,74.4z"/>
<path class="st1" d="M207.5,137.4c0.4-1.2,1.4-2.6-1-2.9c-2-0.2-2.7,0.6-2.6,2.6c0.1,3.5,0,7,0,10.5c0,2.4,1.6,3.6,4.3,5.4
	C205.6,147.1,205.8,142.2,207.5,137.4z"/>
<path class="st1" d="M267.4,167.3c-0.1,4.1-3.9,8.5-8,8.5c-7,0.1-2.9,5.2-3.7,8c-1,3.2,1.2,3.7,4,3.8c6.4,0.1,7.9,1.3,8.4,7.1
	c0.3,3.2,2.1,3,4.1,2.8c2-0.2,4.6,1.4,5.2-2.6c0.9-6,2.6-7.1,8.6-7.3c3.8-0.1,7.7,0.5,12.2-0.6c-10.3-10-20.2-19.4-30.9-29.8
	C267.4,161.5,267.4,164.4,267.4,167.3z"/>
<path class="st1" d="M254.5,208.4c0-0.9,0-1.8,0-2.6C254.4,206.7,254.3,207.6,254.5,208.4z"/>
<path class="st1" d="M254.4,202.2c0.1,1.2,0.1,2.4,0.1,3.6C254.6,204.6,254.8,203.3,254.4,202.2z"/>
<path class="st1" d="M199.7,76.5c0.8,0,1.6,0,2.5,0C201.3,76.4,200.4,76.1,199.7,76.5z"/>
<path class="st2" d="M391.3,197.4c-5.8-0.1-11.7-0.1-17.5,0c-1.9,0-3.2,0-3.7-2.7c-1.4-6.4-2.7-7.2-9.5-7.1c-3.3,0-6.6,0.1-10,0.3
	c-4.5,0.2-8.6-4.6-7-8.8c1.9-4.8,3.6-9.8,6.4-14.1c1.7-0.8,1.4-2.1,0.8-3.4c-0.6-1-1.3-1.8-2.5-1.9c-1.2,0.2-2.2,1.2-3.5,0.8
	c-5.3-1.4-7.3-6.5-11-9.7c-0.5-0.1-0.9-0.1-1.4,0c-3.5,2-6.8,4.3-8,8.6c0.2,1,0.7,1.8,1.5,2.5c4.2,3.3,8.7,6.3,14.2,7.1
	c3.3,0.5,2.9,2.4,1.8,4.6c-2.3,4.5-2.8,9.1,0.3,13.5c0.7,3.2,3.1,3.3,5.7,3.4c5.2,0.2,10.5-0.6,15.7,0.5c1.3,0.8,2.8,1.7,2.4,3.4
	c-0.5,1.9-2.4,1.3-3.8,1.4c-0.8,0-1.7,0-2.5-0.1c-2.6-0.1-5.3,0-8,0c-14.6,0-29.2,0-43.8,0c-1.4,0-3.3,0.4-4-1.2
	c-0.7-1.5,0.8-2.3,2-3c1.8-1,3.8-0.9,5.8-0.9c8.3,0,16.5,0,24.8,0c1.9,0,5.1,0.5,5.1-1.7c0-2.6-3.2-2-5.1-2.1
	c-8.4-0.2-16.9,0.2-25.3-0.2c-1-0.3-2-0.6-2.7-1.4c-12.7-12.9-26.6-24.5-38.9-37.8c-3.4-3.7-3.2-7.8,0.2-11.7c3-3.4,6.3-6.4,9.4-9.6
	c1.9-2,3.9-2.3,6.3-0.9c3.5,2,7.4,2.9,11.3,3.6c1.1,0.5,2.7-0.1,3.2,1.6c0.4,3.7,1.7,4.2,6.3,2c-0.2-3.6,2.4-5.2,4.8-6.8
	c1.9-1.3,3.7-0.7,4.6,1.8c0.4,1.4-0.4,3.5,2.1,3.7c1.5-1.6,0-3.7,0.7-5.1c0.2,1.2-0.6,2.7,0.5,4.2c1.4-2.2-0.9-5.4,2.1-7.1
	c-0.6-1,0-2.1-0.2-3.1c-2.6-1.8-5.5-2.5-8.6-2.7c-1.8,0.7-3.6,1.5-5.6,0.5c-2-0.2-3.7-1.2-5.5-2c-3.6-1.6-6.2-4.8-10-6
	c-1.2-0.2-2.3-0.6-3.4,0.2c-6.8,6.8-13.7,13.6-20.5,20.5c-7.6,7.7-7.5,14.1,0,22c10.5,10.9,22.3,20.4,32.5,31.6
	c-11.1-12-23.8-22.2-35-34.1c-6.5-6.8-6.6-10.2-0.1-16.9c7.7-7.9,15.5-15.6,23.3-23.3c-0.4-1.9-1.9-2-3.3-2.3c0,0.1,0.1,0.3,0.1,0.4
	c-1.7,1.7-3.3,3.4-5,5c-5.1,1-10.2,0.4-15.3,0.4c-10.3,0.1-20.6,0.1-30.8,0c-1.6,0-3.3,0.5-4.8-0.6c6-6.6,10.6-14.1,12.7-22.9
	c0.7-2.8,2.7-2,4.3-2c9.9-0.1,19.8-0.1,29.7-0.2c0.1-0.2,0.2-0.5,0.2-0.8c-0.5-0.3-0.9-0.4-1.4-0.5c-0.2,0-0.5,0-0.7,0
	c-0.7,0-1.4,0-2.1,0c-0.2,0-0.4,0-0.7,0c-9.3-0.1-18.6,0-27.9-0.1c9.5,0.1,19.1-0.1,28.6,0.1c0.9,0,1.9-0.2,2.8,0
	c2.8-0.2,3.7-1.7,3.8-4.4c0-1.7,0.1-3.3-0.8-4.8c-0.4-0.5-0.9-0.9-1.5-1.1c-9.5-0.5-19-0.2-28.5,0.1c-1.4,0.5-3,0.2-4.4,0.2
	c-1.2,0-2.3,0-3.5,0c-4.5,0.1-8.9,0.1-13.4,0.1c-1.5,0-3,0-4.5-0.1c-3.7,0-7.4,0-11,0c-2.6,0-5.2,0.1-7.8,0.1c-0.2,0-0.4,0-0.7-0.1
	c-0.8,0-1.6,0-2.5,0c-0.4,0.3-0.6,0.7-0.7,1.6c2.3,1.9,5,1.4,7.7,1.4c20.1,0,40.3,0,60.4,0.1c2.2,0,6.2-1.1,6.2,1.9
	c-0.1,2.9-4.1,1.8-6.4,1.8c-20.3,0.1-40.6,0-60.9,0.1c-2.6,0-5.4-0.4-7.8,1.2c-0.3,2.9,2.1,2.7,3.5,2.5c1.1-0.2,2.1-0.3,3.2-0.4
	c0-0.1,0.1-0.1,0.2-0.2c1,0,2,0,2.9,0c3-0.1,5.9-0.1,8.7,0c3.4,0,6.6,0,9.3,0c-2.8,0.2-6,0.1-9.3,0c-2.8,0-5.7,0-8.7,0
	c-1,0-2.1,0.1-3.1,0.2c-3.1,4.7-7.1,8.5-11.1,12.5c-0.8,1-1.8,1.9-2.9,2.8c-1,1-1.9,2-2.9,3c0.8-1.2,1.9-2.1,2.9-3
	c0.9-1,1.9-1.9,2.9-2.8c0.7-0.9,1.2-1.9,1.5-3.1c0-1.6-2.9-1.1-2.2-3.1c-0.7-1.3-2-2.2-2.8-3.5c-4.3-6.3-3.1-13.6,2.8-18.1
	c2.8-2.2,9.2-2.9,11.9-1.3c1,0.6,2.2,1.3,1.9,2.6c-0.3,1.2-1.6,0.9-2.5,1c-1.8,0.1-3.8-0.3-5.4,0.7c-1.8,1.2-1.5,2,0.7,2.1
	c0,0,0,0,0,0c0.7-0.5,1.6-0.2,2.5,0c2.8,0,5.7,0,8.5,0c3.7,0,7.4,0,11,0c6,0,11.9,0,17.9,0c2.6-0.1,5.3-0.1,7.9-0.2
	c0.3-0.1,0.6-0.3,0.9-0.5c0.2-0.3,0.3-0.5,0.5-0.8c-0.8-1.8-1.4-3.7-2.5-5.4c-8.4-12.8-16.7-25.6-25.2-38.3
	c-5-7.4-12.1-11.2-21-11.5c-5.7-0.2-11.3-0.1-17,0c-5.6,0.1-7.1,2.9-4.2,7.7c2.5,4,5.2,7.9,7.9,11.9c-1.7,0.6-2.9,1-4.2,1.4
	c-0.2,1.2-2.6,0.4-2.1,2.2c0.3,0.6,0.7,1.1,1.3,1.5c1,0.5,2.1,0.9,3.3,1.1c3.8-0.2,6.8,0.7,6.3,5.5c0.1,1.7-2.8,2.4-1.4,4.5
	c0.5,0.6,1.2,1.1,1.7,1.8c4.2,4.9,4.2,5.1-1.5,8c-9.2,4.7-12.8,13.8-9,22.9c2.8,6.7,2.8,6.7-2.3,11.9c-1,1.2-0.6,2.6-0.7,3.9
	c0.1,1.5,1.7,2.5,1.4,4.2c0.5,1,1.4,1.5,2.4,1.7c3.4,0.7,6.9,0.3,10.4,0.4c5.5,0.2,6.6,1.2,6.7,6.9c0.1,8.6,0,17.2,0.1,25.8
	c-0.2,5.9-0.1,11.7,0,17.6c0.1,1.2,0.2,2.3,0.1,3.4c-0.1,2.8,1,5.9-0.5,8.1c-1.3,1.9-4.2-1.1-6.3,0.4c-2.4,1.2-4.8,2.4-6.9,4
	c-0.7,0.9,2,2-0.2,2.8c0.3,2.7,3.4,3.9,4.2,6.8c-3.1,0.6-5.9,0.1-8.7,0.5c-3.1,0.5-5.3,2.2-6,5.1c-0.5,2.3-2.4,5.1,1.1,6.9
	c7,0.3,14,0,21.1,0.1c7.1,0,14.3,0.1,21.5,0c9.3-0.2,18.6,0.6,27.9-0.4c2.6-2.8,1.4-6.3,1.8-9.5c0.2-1.9-0.6-4.2,1.9-5.9
	c1.7,3.1,0.9,6.1,1.2,9c0.5,6.2-1.2,12.6,1.2,18.7c1.4,0.7,1.7-0.3,1.8-1.3c0-0.4,0-0.7,0-1.1c-0.1-0.9,0-1.7,0-2.6
	c0-1.2,0-2.4-0.1-3.6c0.4,1.1,0.3,2.4,0.1,3.6c0,0.9,0,1.7,0,2.6c0.1,0.9,0.5,1.7,1.2,2.5c0-1.8,0.3-3.7,0-5.5
	c-0.5-4.3,0.7-6.1,5.6-5.9c10.5,0.4,21,0.1,31.5,0.1c32.8,0,65.6,0,98.4-0.1c1.3,0,3.7,0.9,3.7-1.1
	C395,196.4,392.6,197.4,391.3,197.4z M203.9,147.5c0-3.5,0.1-7,0-10.5c0-1.9,0.7-2.8,2.6-2.6c2.4,0.3,1.4,1.7,1,2.9
	c-1.7,4.9-1.8,9.7,0.7,15.6C205.5,151,203.9,149.9,203.9,147.5z M243.3,186.8c-2.3-0.1-5.2-2.6-4.9-5.2c0.2-2,0.6-5.8,4.3-5.6
	c4.5,0.3,1.1,4,2.5,5.7C244,183.4,246.8,186.9,243.3,186.8z M286.1,187.7c-6,0.2-7.8,1.2-8.6,7.3c-0.6,4-3.2,2.4-5.2,2.6
	c-2,0.2-3.8,0.4-4.1-2.8c-0.5-5.9-2.1-7.1-8.4-7.1c-2.8,0-4.9-0.6-4-3.8c0.8-2.8-3.3-7.9,3.7-8c4.1-0.1,7.9-4.5,8-8.5
	c0.1-2.9,0-5.9,0-10c10.7,10.3,20.6,19.8,30.9,29.8C293.8,188.2,289.9,187.5,286.1,187.7z"/>
<path class="st1" d="M205.1,86.5c0,0.1-0.1,0.1-0.2,0.2c1-0.1,2.1-0.2,3.1-0.2C207,86.5,206,86.5,205.1,86.5z"/>
<path class="st1" d="M208,86.5c3,0,5.9,0,8.7,0C213.9,86.4,211,86.4,208,86.5z"/>
<path class="st1" d="M193.8,99.2c-1,0.9-1.9,1.9-2.9,2.8C192,101.1,193,100.2,193.8,99.2z"/>
<path class="st1" d="M202.8,76.6c2.6,0,5.2-0.1,7.8-0.1c-2.8,0-5.7,0-8.5,0C202.4,76.6,202.6,76.6,202.8,76.6z"/>
<path class="st1" d="M226,86.5c-2.7,0-5.9,0-9.3,0C220,86.6,223.2,86.7,226,86.5z"/>
<path class="st1" d="M271.8,86.5c0.7,0,1.4,0,2.1,0c0.3,0,0.5,0,0.7,0C273.7,86.4,272.7,86.5,271.8,86.5z"/>
<path class="st1" d="M226.2,76.5c4.5,0.1,8.9,0,13.4-0.1c-6,0-12,0-17.9,0C223.2,76.5,224.7,76.5,226.2,76.5z"/>
<path class="st1" d="M243.2,86.5c9.3,0.1,18.6,0,27.9,0.1c0.2,0,0.4,0,0.7,0C262.2,86.4,252.7,86.5,243.2,86.5z"/>
<path class="st1" d="M243.1,76.5c1.5,0,3,0.3,4.4-0.2c-2.6,0.1-5.3,0.1-7.9,0.2C240.8,76.5,242,76.5,243.1,76.5z"/>
<path class="st1" d="M188.1,105c0.9-1,1.9-2,2.9-3C189.9,102.9,188.9,103.9,188.1,105z"/>
<path class="st1" d="M267.4,167.3c-0.1,4.1-3.9,8.5-8,8.5c-7,0.1-2.9,5.2-3.7,8c-1,3.2,1.2,3.7,4,3.8c6.4,0.1,7.9,1.3,8.4,7.1
	c0.3,3.2,2.1,3,4.1,2.8c2-0.2,4.6,1.4,5.2-2.6c0.9-6,2.6-7.1,8.6-7.3c3.8-0.1,7.7,0.5,12.2-0.6c-10.3-10-20.2-19.4-30.9-29.8
	C267.4,161.5,267.4,164.4,267.4,167.3z"/>
<path class="st1" d="M254.4,202.2c0.1,1.2,0.1,2.4,0.1,3.6C254.6,204.6,254.8,203.3,254.4,202.2z"/>
<path class="st1" d="M199.7,76.5c0.8,0,1.6,0,2.5,0C201.3,76.4,200.4,76.1,199.7,76.5z"/>
<path class="st1" d="M254.5,208.4c0-0.9,0-1.8,0-2.6C254.4,206.7,254.3,207.6,254.5,208.4z"/>
<path class="st1" d="M199,74.4c1.6-1,3.6-0.6,5.4-0.7c1-0.1,2.3,0.2,2.5-1c0.3-1.3-0.9-2-1.9-2.6c-2.7-1.6-9-0.9-11.9,1.3
	c-6,4.6-7.1,11.8-2.8,18.1c0.8,1.2,2.1,2.1,2.8,3.5c-0.7,2,2.2,1.6,2.2,3.1c-0.3,1.2-0.8,2.2-1.5,3.1c4-3.9,8-7.8,11.1-12.5
	c-1.1,0.1-2.1,0.2-3.2,0.4c-1.4,0.2-3.9,0.5-3.5-2.5c2.4-1.6,5.1-1.2,7.8-1.2c20.3,0,40.6,0,60.9-0.1c2.3,0,6.3,1.1,6.4-1.8
	c0.1-3-3.9-1.9-6.2-1.9c-20.1-0.1-40.3,0-60.4-0.1c-2.6,0-5.4,0.4-7.7-1.4c0.1-0.9,0.3-1.3,0.7-1.6c0,0,0,0,0,0
	C197.5,76.5,197.1,75.6,199,74.4z"/>
<path class="st3" d="M90,160c2.1,3,3.9,2.8,6.3,0c4.7-5.3,9.8-10.3,15.3-16c-2.7,0-5.1,0-7.5,0c-10.8,0-21.6,0-32.4-0.1
	c-2,0-4,0.4-5.8-0.9c0.6-0.7,1.3-1.1,2.1-1.2c9.3-0.3,18.6-0.8,27.8,0.2c3.7,0.4,7.5,0,10.9,0.6c-3-0.9-6.7,1-9.9-1.1
	c1.1-2.3,3.3-1.8,5.2-1.9c3.3-0.2,6.6-0.2,9.9,0c4.1,0.3,5.9-1.4,5.5-5.4c0.3-1.2,0.8-2.2,1.9-2.8c2.2-1,4.6-0.7,6.9-0.9
	c4.8-0.2,5.2-0.8,5.3-6.3c0-5.7-0.5-6.6-5.5-6.6c-11.1-0.1-22.3,0-33.4,0c-2.5,0-5,0.1-7.5,0c-1.5-0.2-3.2-0.2-4.2-1.7
	c1-2.6,3.4-1.9,5.2-1.7c14.8,1,29.6,0.2,44.4,0.5c0.8,0,1.5-0.1,1.6,0c-12.2,0-25.1,0-38,0c-1.7,0-3.7,0.9-5.1-0.9
	c0.7-1.8,2.4-1.7,3.8-2c11.7-0.1,23.4,0,35.1-0.1c2.2,0,4.8,0.6,5.8-2.4c1.9-2.5,4.7-1.3,7.1-1.5c0.5,0.3,1,0.6,1.3,1.2
	c0.8,1.6,1.3,3.4,1.5,5.2c0.3,9.6,0.2,19.3,0.1,28.9c0.1,6.3,0.2,12.6,0,18.9c0.5,4.2-1.7,8.7,1.5,12.5c0.8,0.5,1.7,0.9,2.2,1.7
	c-0.4,2.7-2.7,3.6-4.7,3.2c-4.4-0.8-3.1-5.1-4.3-8.9c-5.5,5.8-12,10-15.6,16.9c1.3,0.9,2.9,0.3,4.2,0.8c1.1,0.4,2.8,0.3,2.1,2.3
	c-3,1.8-6.4,0.8-9.6,1.1c-1.7,0.2-3.7,0.2-3.7,2.4c0,2.6,2.4,1.9,3.8,1.8c4.1-0.4,8.7,1.8,12-2.3c2.7-1.2,1.3,1.9,2.3,2.9
	c0.4,0.7,0.5,1.1,0.4,1.9c-0.4,0.8,0.1,1.2-0.7,1.3c-0.5-0.1-1.1-0.3-1.6-0.3c-6.2-0.2-12.5,0-18.7-0.1c-2.6-0.5-5.8,1.3-7.7-1.9
	c-0.7-3.4,2.6-6,2.1-9.3c-0.3-0.9-0.9-1.5-1.8-1.3c-6.3,0.8-12.8,0.7-18.5,4.1c-0.8,0.6-1.7,1-2.7,1.1c-3.6-0.5-7.2,0.2-10.7,0.9
	c-4.6,0.9-9.2,2.4-13.2,1.6c0.3-0.1,1.2,0.2,1.8,1.3c0,0.6-0.1,1.1-0.5,1.6c-1,1.2-2.2,2-3.8,2c-7.4,0.1-14.9,0.2-22.3-0.1
	c-0.7,0-1.2-0.4-1.7-0.9c-0.3-2.1,1.5-2,2.6-2.1c5.7-0.3,11.5-0.7,16.2,0.2c-4.3-2.3-10.4-3.1-15-7.2c-0.2-1.3,0.7-2,1.6-2
	c3,0-1.1-1.4,0.3-1.6c4.4-3.2,9.4-4.9,14.9-5c2.7,1.2,4.4,3.5,6.4,5.5c2.3,2.4,4.9,3.1,8.1,2.3c9.6-2.2,19.1-4.7,28.8-6.3
	c4.2-0.7,5.1-3.7,5.9-7.2c-1.2,0.5-1.8,1.5-2.5,2.2c-5.7,5.4-8.3,5.5-13.8-0.1c-2.5-2.6-5.7-4.7-7.1-8.3c0.6-4.1,4.7-5.1,6.9-7.8
	C88.1,160.2,89,160,90,160z"/>
<path class="st4" d="M97,141.1c4.5,2.2,9.4,0,14,1.9c-15,0-30,0-45,0c-2.8-0.9-4-3-3.9-5.7c0.1-2.8-1.1-3.3-3.6-3.2
	c-6.8,0.1-13.7,0.1-20.5,0c-5.3,0-6.8-1.5-7-6.7c-0.2-9.7,4-13.9,13.9-14c3.3,0,7.5,1.1,9.8-0.4c2.5-1.7-0.2-5.9,0.3-9.1
	c0.7-4.5,2-8.7,4-12.8c2.4-4.9,2.3-9.5-1.6-13.9c-3.1-3.5-1.8-13.8,1.9-17.1c1.9-1.7,4.1-2.7,2.9-6.5c-1.4-4.2,2.3-4.6,5.6-4.6
	c3.3,0,6.8,0.5,5.5,4.7c-1.1,3.3,0.5,4.3,2.3,5.8c5.5,4.6,6.3,12.9,1.9,18.7c-2.9,3.8-3.2,8.1-1,12.2c3.5,6.6,4.8,13.4,3.6,20.7
	c-0.1,0.7-0.8,1.7,0.4,2c2,0.4,5.2,0.9,5.7-0.3c2.7-7.5,9.1-5.6,15.4-6.1c-6.5-6.2-9-12.9-5.1-20.5c2.4-4.8,6.8-6.5,12.1-5.7
	c1.4-1.6-1.6-2.5-0.5-4.2c1.1-0.9,2,0,2.2,0.8c1.2,4.1,3.7,4.1,7.5,3.7c8.5-0.8,13.7,7.4,11,16.3c-1.1,3.6-3.4,6.3-7.2,10
	c7.4,0,13.5,0,19.5,0c0.2,0.2,0.3,0.4,0.2,0.6c-0.1,0.2-0.2,0.3-0.2,0.3c-2.5,0-5-0.3-7.3,1.2c-1.8,1.6-4,1.4-6.2,1.4
	c-10.5,0-20.9,0.1-31.4,0c-2.7-0.6-4.7,1.3-7,2.2c1.1,2.3,3.2,1.3,4.9,1.3c11.7,0.1,23.3,0,35,0.1c1.6,0,3.3-0.4,5.9,1
	c-9.3,0-17.6,0-25.8,0c-7.8,0-15.7,0-23.5,0c-1.6,0-3.4-0.6-4.7,1c0.2,2.4-2.2,3.1-3.2,4.7c-1.5,2.4-2,4.9-1,7.6
	c0.8,2.3,2.9,2.4,5,2.2c10.2-0.2,20.5-0.1,30.7-0.1c2.3,0,4.7-0.3,6.6,1.5c0,0.9-0.2,1.7-1.1,2.1c-2.9,2.2-6.4,1.1-9.6,1.3
	c-2,0.2-4,0-6,0C96.9,135.5,96.9,135.6,97,141.1z"/>
<path class="st5" d="M312,118c-1.4,2.2-3.3,1.2-5.2,1c-14.8-7.7-21.5-20.4-22-36.5c-0.5-16.3,6.9-28.7,20.6-37.3
	c-1.7,1.1-3.6,2.2-5.4,3.2c-2,1.2-4,2.4-5.8,3.8c-6.5,5.4-10.9,12-12.9,20.3c-0.9,3.8-1.1,3.7-3.9,3.9c-0.4-1.3,0.1-2.6,0.3-3.8
	c1.7-10.4,7.5-18.4,15.7-24.5c2.4-1.8,2.4-2.8,0.8-5c-3.7-5.1-7.1-10.4-10.5-15.8c-2.9-4.6-1.4-7.3,3.9-7.4
	c4.8-0.1,9.7,0.1,14.5-0.1c11.1-0.3,19.6,4.3,25.3,13.8c1.2,2,2.4,3.9,3.6,5.9c0.1,2.7-1.5,2.3-3.2,1.7c-0.4-0.3-0.7-0.7-1-1.1
	c-3.9-8-9.5-14.1-18.5-16.3c-4-0.9-8-0.4-11.9-0.4c-2.3,0-3,1.2-1.8,3.2c2.5,4.2,5.3,8,8.3,11.9c1.4,1.8,3.1,1.5,5,1.1
	c4.2-1,8.5-1.3,12.8-0.2c1.1,0.7,2,1.6,2.5,2.8c-0.3,1.6-1.7,1.8-2.9,2.1c-27.9,6.8-39.3,37.7-22.3,60.9c2.8,3.8,6.6,6.5,10.5,9.1
	C309.9,115.3,312.1,115.5,312,118z"/>
<path class="st6" d="M141,108c0-0.3,0-0.6,0-0.9c5.1,0,10.2,0,16.1,0c-9.8-15.4-11.3-30.6-2.9-45.9c6.1-11.1,15.6-18.4,28.5-20.4
	c1,2-2,0.9-1.8,2.2c-2.8,2.3-6.2,3.7-9.3,5.5c-18.5,10.9-24.6,34.1-13.6,52.4c1.1,1.8,1.9,4,4.7,4.1c0.5-2.1-1-3.5-1.7-5
	c-9.9-20.6-0.5-44.6,14.4-53.6c2-1.2,4.1-2.2,6.4-2.5c1.1,0.1,2.4-0.2,3.1,1.1c-0.3,2.9-3,3.3-4.9,4.4
	c-16.4,10.2-22.6,32.2-13.9,49.1c2.3,4.4,5,7.9,10.6,7.2c1.2-0.1,2.3,0.3,3.1,1.2c0.3,0.7,0.7,1.4,1,2.1c-1.5,1.4-3.3,1.5-5.1,1.5
	c-10,0.1-20,0.1-30,0c-1.7,0-3.3-0.2-4.8-1.2C141.1,108.9,141,108.5,141,108z"/>
<path class="st7" d="M105.9,195.7c1.3,4.1,4.7,1.5,7.1,2.3c0.3,0.8,0.1,1.2-0.7,1.4c-33.9,0.1-67.9,0-101.8,0
	c-1.1,0-2.3,0.2-3.4-0.5c-0.2-2.5,1.7-1.5,2.7-1.5c5-0.1,9.9,0,15.5,0c-1.5-2.5-4.3-3.1-5.1-5.5c-1.8-5.2,0.4-9.5,6.4-10.7
	c9.3-1.9,18-5.7,27-8.4c8.8-2.6,16.1-7.3,23-13.3c4.8-4.2,8.8-3.8,13.5,0.5c-0.4,0.8-1.2,0.9-2,1c-6.2-1.7-10.4,1.8-14.4,5.6
	c-4.8,4.7-10.9,6.9-17,8.9c-6.9,2.3-13.6,5.1-20.7,7.3c1.1,1.6,3.2,1.4,3.9,3.1c0.4,0.2,0.8,0.3,1.2,0.5c-0.6,1.4-2,1.5-3.3,1.7
	c-2.6,1.2-4.6-0.6-6.9-1.2c-2.4-0.5-5.5-2.9-7,0.5c-1.6,3.7,2.1,5,4.7,6.4c1.8,1,4.2,1.1,5.4,3.2c9.5,1.1,19,2.6,28.3-1.2
	c2-1.1,4,0,6,0.3c6.4,0.9,12.9,0.9,19.3,0c-0.4-1.6-2-2.2-2.6-3.6c-0.2-0.4-0.2-0.9,0-1.3c0.3-0.8,1-1.1,1.8-1.2
	c1.3,0,2.2,0.8,3.1,1.6C94.1,197.3,99.8,197.2,105.9,195.7z"/>
<path class="st8" d="M348,160.1c-0.7,1.3-1.8,1.9-3.3,1.7c-1.7-2.7-4.6-4.1-6.2-7c-4.6-8.7-3.5-17.3,3.5-25.2
	c-4.8,4.4-5.2,5-8.4,13.1c-0.8,1.1-1,3.2-3.2,2.2c2.2-19.1,23.3-28.6,39.4-17.6c7.3,5,10.6,14.2,8.2,22.9
	c-2.4,8.6-10.1,14.7-19.1,14.9c-3,0.1-6-0.1-9-0.1c0.7-1,0.5-2.1,0-3.1c1.5-1.4,3.4-1.2,5.2-0.8c3.9,0.8,7.5,0,11-1.8
	c8.5-5.4,11.3-15.7,6.4-23.7c-5.1-8.3-15.4-10.2-24.9-4.6c-7.8,7.2-8.7,15.6-2.8,24.3C346.1,156.8,347.8,158,348,160.1z"/>
<path class="st9" d="M328,40c1.3,1.4,2.3,1.1,3.2-0.5c3.3,0.8,6.7,1.4,10,2.4c20,6.4,32.3,26.8,28.4,46.9
	c-4.3,21.9-22.7,36.3-44.4,34.6c-1.3-0.1-2.7-0.2-4-0.2c-0.5-0.5-1-1-1.5-1.5c0.5-0.3,1-0.5,1.5-0.8c0.4-0.3,0.9-0.4,1.4-0.4
	c3.7,0.1,7.3,0.6,10.9-0.4c6.8-2,13.6-3.9,18.9-9c7.2-6,11.6-13.6,13.4-22.7c3.7-19-9.2-38.9-28.1-43.6c-4.8-1.2-9.9-0.6-14.6-2.6
	c-1.2-0.2-2.2-0.6-2.3-2C323.3,38.1,325.7,38.3,328,40z"/>
<path class="st2" d="M7,199c33.5,0,67,0,100.6,0c1.8,0,3.6-0.1,5.5-0.2c6.5-0.4,13.1-0.5,19.6,0c0.5,0,1,0,1.5,0
	c0.9-0.3,1.8-1,2.8-1c12.5-0.1,25.1-0.9,37.6,0.4c5.3,0.6,10.6,0.1,15.8,0.3c2.1,0.1,4.3-0.3,6.4,0.3c14.4,0.1,28.7,0.1,43.1,0.2
	c1.7,0,3.7-0.7,5,1.1c-2-0.1-4-0.4-5.9-0.4c-58.6,0.1-117.2,0.2-175.9,0.2c-17.5,0-35-0.1-52.4-0.3C9.5,199.6,8.1,200.3,7,199z"/>
<path class="st8" d="M325,158.9c0.4,0.8,0.7,1.5,1.1,2.3c-0.9,3.1-3.4,2.9-5.9,2.8c-1.8-0.4-3.4-1.2-4.8-2.5
	c-6.1-5.8-12.2-11.7-17.9-17.9c-4.1-4.5-3.3-10.2,1.3-13.4c0.7-0.5,1.4-0.8,2.3-0.2c-0.3,5.4,2.6,2.8,4.9,1.9
	c3.4-2.2,7.1-1.5,10.7-1.1c2.4-1.4,0.6-4.1,2-6.4c0.2,2.3,0.3,4,0.4,5.7c-0.4,3.2-2.6,3.9-5.3,3.9c-3.6,0-7.3-0.1-10.9,0
	c-3.9,0.1-5.9,3.4-3.4,6.2c5.2,5.7,11,11,16.5,16.4c1.5,1.5,2.3,0.1,3.2-0.8c3.2-3.1,6.4-6.2,9.7-9.2c0.6,0.5,0.9,1.1,0.9,1.9
	c-1,4.5-5.5,6.2-7.7,9.9C322.9,159.6,324.2,158.2,325,158.9z"/>
<path class="st10" d="M261,236c0.3,0.3,0.6,0.6,1,1c-1.4,0.9-2.9,0.5-4.4,0.5c-16.8,0-33.5,0.1-50.3-0.1c-1.4,0-3.8,1.4-4.4-1.5
	c4.8,0,9.6,0,14.6,0c-3.1-8.6-1.6-17.2-1.4-25.5c0.1-3.3,3.2-6.5,7.5-6.6c3.2-0.1,6.3,0.1,9.5,0c5.2-0.3,7.8,2.6,9.3,7.1
	c-0.5,0-1,0.1-1.4,0.1c-0.8,0.1-1.5-0.1-2.1-0.4c-7-4.9-14.6-4.7-18.9,0.5c-1.2,5.5-0.5,11.1-0.4,16.7c0,2.5,1.7,4.2,3.4,5.8
	c4,2,8.1,1.3,12.2,0.5c1.3-0.7,2.6-1.8,4.2-1.4c1.8,2.1,4.3,1.9,6.7,2.1C251.1,235.1,256.3,233.3,261,236z"/>
<path class="st2" d="M203,235.9c1.4,1.8,3.4,1.1,5.1,1.1c18,0,35.9,0,53.9,0c14.8,0,29.6,0,44.4,0c1.6,0,3.4,0.6,4.6-1.1
	c1.1,0.7,0.8,1.5-0.1,1.8c-1.2,0.3-2.6,0.3-3.9,0.3c-33.4,0-66.7,0-100.1-0.1C205.6,237.8,203,238,203,235.9z"/>
<path class="st11" d="M323.2,236.2c9.5,0,19.1,0,28.6,0c0,0.4,0,0.7,0,1.1c-9.5,0-19,0-28.6,0C323.2,236.9,323.2,236.5,323.2,236.2z
	"/>
<path class="st5" d="M277.8,72.5c0.1,1.5,0.2,3.1,0.3,4.6c-0.2,0.1-0.4,0.2-0.6,0.3c-0.2-0.1-0.4-0.3-0.5-0.4l0,0
	c-7.9-1.1-15.9-0.2-23.8-0.6c-1.4-0.1-3.4,1.1-4.3-1.2L249,75c8.1,0,16.2-0.1,24.2,0C275.4,75.1,277.1,74.8,277.8,72.5z"/>
<path class="st12" d="M329.1,149.1c0-0.8-0.1-1.6-0.1-2.4c0.5-0.6,1-1.2,1.6-1.8c1.8-0.1,1.2-2.3,2.5-2.9c2.1,2.9,2.1,5.9,0.1,8.9
	L333,151C330.8,152.2,330,150.5,329.1,149.1z"/>
<path class="st2" d="M278,214.9c-3.9,2-7.9,1.2-11.9,0.4C270.1,215.2,274,215.1,278,214.9z"/>
<path class="st13" d="M187.1,236.4c0.4-1.2,1.5-1,2.4-1c1.1,0,2,0.5,1.6,1.7c-0.4,1.2-1.6,0.9-2.5,0.8
	C187.7,237.9,187,237.5,187.1,236.4z"/>
<path class="st14" d="M320,163.1c2.2,0,4.4-0.2,6.1-1.9c2.4-0.5,3.2,1.9,4.8,2.9c2.9,1.7,6,2.9,9.2,3.9c-2.9,5.5-6.3,11-3.8,17.7
	c0.4,1.1-0.2,1.9-1.5,1.9c-8.5-0.2-17.1,0.4-25.6-0.3c-13.3-12.8-26.7-25.5-39.9-38.4c-4.5-4.4-4.5-9.6-0.2-14.2
	c3.5-3.8,7.3-7.3,10.9-11c1.2-1.2,2.2-1.8,3.9-0.7c4.1,2.6,8.8,3.7,13.4,5c-1.3,2.4-3.7,3.8-5.5,5.7c-2.2,2.5-2.7,5-0.2,7.5
	c6.7,7,13.5,13.9,20.5,20.5C314.1,163.5,316.8,164.8,320,163.1z"/>
<path class="st15" d="M353.1,112.1c-5.3,5.3-12.2,7.2-19.1,9c-4,0.6-8,0.8-12-0.1l-0.4-0.2c0,0-0.4,0.1-0.4,0.1
	c-3.1-1-6.1-1.9-9.2-2.9c-15.4-8.3-23.9-20.8-23.2-38.7c0.7-17.3,14.1-32.8,31.2-36.1c3.4,0.7,6.8-0.3,10.4,0.2
	c21.6,3,41.4,27.9,32.7,53.4C361.1,102.9,356.9,107.3,353.1,112.1z"/>
<path class="st16" d="M142.2,162.7c0-6.6,0-13.1,0-19.7c2.9-3.6,6.5-3.8,10.3-2.1c2.6,1.2,5,1.5,7.6-0.1c2.1-1.3,4.6-1.3,6.7-0.2
	c3.3,1.7,6.3,1.6,9.5-0.1c1.8-1,4.1-1.2,5.8-0.1c3.8,2.3,7.3,1.3,10.9-0.4c3.2-0.4,5.9,0.5,7.9,3c0,6.4,0,12.8,0.1,19.1
	c-2.6,1.9-5.3-1.5-7.9,0.1c-3.3,2.1-6.8,2.5-10.3,0.6c-2.4-1.3-4.8-1.1-7.1,0.3c-2.8,1.7-5.6,1.7-8.4-0.1c-2.4-1.4-4.6-1.4-7,0.1
	c-1.4,0.9-3.3,1.5-4.8,0.9C151.2,162,146.8,162,142.2,162.7z"/>
<path class="st17" d="M267,116.2c-0.1,0.1-0.2,0.3-0.3,0.4c-5,4.9-9.2,11.3-15.1,14.3c-6,3-13.7,0.7-20.7,0.8
	c-7.5,0.1-15-0.1-22.4,0.1c-3.3,0.1-4.9-0.7-4.6-4.4c0.3-3.8,0.1-7.6,0.1-11.5c0.3-0.2,0.6-0.4,0.9-0.4c20.3-0.1,40.5-0.1,60.8,0
	C266.3,115.5,266.6,115.9,267,116.2z"/>
<path class="st1" d="M202.8,76.6c2.6,0,5.2-0.1,7.8-0.1c-2.8,0-5.7,0-8.5,0C202.4,76.6,202.6,76.6,202.8,76.6z"/>
<path class="st1" d="M226.2,76.5c4.5,0.1,8.9,0,13.4-0.1c-6,0-12,0-17.9,0C223.2,76.5,224.7,76.5,226.2,76.5z"/>
<path class="st1" d="M199,74.4c1.6-1,3.6-0.6,5.4-0.7c1-0.1,2.3,0.2,2.5-1c0.3-1.3-0.9-2-1.9-2.6c-2.7-1.6-9-0.9-11.9,1.3
	c-6,4.6-7.1,11.8-2.8,18.1c0.8,1.2,2.1,2.1,2.8,3.5c-0.7,2,2.2,1.6,2.2,3.1c-0.3,1.2-0.8,2.2-1.5,3.1c4-3.9,8-7.8,11.1-12.5
	c-1.1,0.1-2.1,0.2-3.2,0.4c-1.4,0.2-3.9,0.5-3.5-2.5c2.4-1.6,5.1-1.2,7.8-1.2c20.3,0,40.6,0,60.9-0.1c2.3,0,6.3,1.1,6.4-1.8
	c0.1-3-3.9-1.9-6.2-1.9c-20.1-0.1-40.3,0-60.4-0.1c-2.6,0-5.4,0.4-7.7-1.4c0.1-0.9,0.3-1.3,0.7-1.6c0,0,0,0,0,0
	C197.5,76.5,197.1,75.6,199,74.4z"/>
<path class="st1" d="M188.1,105c0.9-1,1.9-2,2.9-3C189.9,102.9,188.9,103.9,188.1,105z"/>
<path class="st1" d="M254.4,202.2c0.1,1.2,0.1,2.4,0.1,3.6C254.6,204.6,254.8,203.3,254.4,202.2z"/>
<path class="st1" d="M243.2,86.5c9.3,0.1,18.6,0,27.9,0.1c0.2,0,0.4,0,0.7,0C262.2,86.4,252.7,86.5,243.2,86.5z"/>
<path class="st1" d="M208,86.5c3,0,5.9,0,8.7,0C213.9,86.4,211,86.4,208,86.5z"/>
<path class="st2" d="M243.1,76.5c1.5,0,3,0.3,4.4-0.2c-2.6,0.1-5.3,0.1-7.9,0.2C240.8,76.5,242,76.5,243.1,76.5z"/>
<path class="st2" d="M205.1,86.5c0,0.1-0.1,0.1-0.2,0.2c1-0.1,2.1-0.2,3.1-0.2C207,86.5,206,86.5,205.1,86.5z"/>
<path class="st2" d="M271.8,86.5c0.7,0,1.4,0,2.1,0c0.3,0,0.5,0,0.7,0C273.7,86.4,272.7,86.5,271.8,86.5z"/>
<path class="st2" d="M226,86.5c-2.7,0-5.9,0-9.3,0C220,86.6,223.2,86.7,226,86.5z"/>
<path class="st2" d="M254.5,208.4c0-0.9,0-1.8,0-2.6C254.4,206.7,254.3,207.6,254.5,208.4z"/>
<path class="st2" d="M199.7,76.5c0.8,0,1.6,0,2.5,0C201.3,76.4,200.4,76.1,199.7,76.5z"/>
<path class="st2" d="M193.8,99.2c-1,0.9-1.9,1.9-2.9,2.8C192,101.1,193,100.2,193.8,99.2z"/>
<path class="st18" d="M142.2,162.7c3.9-2.2,7.8-3.3,11.9-0.1c2,1.5,4.3,0.4,6-0.8c2.5-1.8,4.8-1.9,7.3-0.1c3,2.2,5.8,1.8,8.7-0.2
	c1.9-1.3,3.9-2,6-0.4c3.8,3,7.4,2,11-0.2c2.3,4.2,2.1,8.5-0.1,12.7c-2.4,1-4,3.5-7,3.4c-1.2,0.1-2.2-0.5-3.2-1.1
	c-2.5-1.8-4.8-1.6-7.2,0.3c-2.5,2-5.2,2.2-7.7,0.1c-2.8-2.3-5.6-1.9-8.1,0.1c-2.3,1.8-4.6,1.8-6.8,0.2c-2.5-1.9-5-2.2-7.9-1.6
	c-1.6,0.7-3.1,1.4-3-1.5C142.2,169.9,142.2,166.3,142.2,162.7z"/>
<path class="st19" d="M348,160.1c-11.4-9.3-9.8-22.3-2.2-29.3c0.3-0.3,0.8-0.5,1.2-0.7c6.4-2.4,12.3-1.6,17.7,2.6
	c1.7,1.3,3.5,2.7,2.6,5.3c-2.3,1.9-5.1,1.1-7.7,1.3c-3.4,0.2-6.1,1.3-6,5.1c0.1,3.7,3.1,4.1,6.1,4.3c3.9,0.2,7.5-0.3,11-2
	c3,4.1,0.3,7.4-1.5,10.7c-0.5,1-1.9,1.4-2.1,2.6c-5.3,4-11.3,2.2-17.1,1.7C349.6,161,349.1,160.2,348,160.1z"/>
<path class="st20" d="M180,107c-0.3,0-0.7-0.2-1-0.1c-9.1,1.9-12.6-3.9-15.4-11c-7-18,0.3-38.8,17.1-48.4c1.4-0.8,2.9-1.6,4.3-2.5
	c4.2-2.1,6.1,0.3,8.1,3.6c1.4,2.3-0.3,2.4-1.4,3.2c-1.3,1.6-3.2,2.3-5,3.2c-16.8,9.1-21.5,28.6-10.6,44.4c1,1.5,2.5,2.7,2.6,4.7
	C179,105.2,181.2,105.4,180,107z"/>
<path class="st21" d="M199.1,77.8c24.1,0,48.2,0.1,72.3,0.1c2.6,0,4.9-0.2,4.8,3.7c-0.1,2.9-1.1,3.7-3.8,3.7
	c-24.8-0.1-49.6-0.1-74.3-0.1c-3.1-0.1-3.3-2.3-3-4.4C195.3,78.5,196.5,76.9,199.1,77.8z"/>
<path class="st22" d="M278.1,76.3c1.8-1.2,1.5-2.4,2-4.1c4.2-15.1,14-24.4,29-29c-0.1,1.5-1.2,1.6-1.9,2.1
	c-26.7,15.6-28.5,52.7-3.5,70.8c1.1,0.8,2.9,1.1,3.2,2.9c-6.2-0.7-10.5-4.9-15.4-8.1C282,105,279,95.5,277.6,85.3
	c-0.4-2.6-0.8-5.6,0.5-8.2L278.1,76.3z"/>
<path class="st23" d="M190.1,54.7c4.9,1.4,4.8,6.6,8.7,9.7c-7.2,0.9-12.2,3.4-15.3,8.8c-3.3,5.6-3.7,11.8,0.2,16.9
	c3,4,1.6,6-1.2,8.5c-1.1,1-1.7,2.5-3.5,2.5c-1.8-0.4-2.6-1.9-3.6-3.2c-9.6-13.6-4.4-34.6,10.4-42.1C187.1,55,188.4,54.2,190.1,54.7z
	"/>
<path class="st24" d="M200.9,143c-2.7-0.4-4.8-2.7-7.8-2.1c-1.7-1.5-1.7-3.5-1.7-5.5c-0.1-3.5,0-7,0-10.5c0-9.6-0.7-10.3-10.1-10.4
	c-10.8,0-21.6,0-32.4,0c-2.3,0-4.7,0.3-6.6-1.4c-0.4-1.3-0.7-2.5-1.1-3.8c13.3-0.1,26.6-0.2,39.9-0.3c4.8,0.1,9.6,0.1,14.4,0.2
	c3.8,0.1,5.8,1.8,5.7,5.8C201,124.4,201,133.7,200.9,143z"/>
<path class="st25" d="M181.9,44c-23.7,12.9-29.7,35.9-16.1,62.3c-3.7,1.4-6,0.3-8.1-2.9c-12.7-19.3-6-45.7,14.6-56.5
	c2.8-1.5,5.8-2.5,8.7-3.7C181.3,43.4,181.6,43.7,181.9,44z"/>
<path class="st26" d="M361.1,196.8c-18.9,0.1-37.9,0.1-56.8,0.2c-1.2,0-2.9,0.4-3.1-1.6c-0.2-2.8,1-4.8,3.9-5.6
	c13.4-0.8,26.8-0.2,40.3-0.3c4.6-0.1,9.3-0.1,13.9,0C362.5,191.3,362.8,193.8,361.1,196.8z"/>
<path class="st27" d="M259,173c-5.5,0-10.9,0.1-16.4,0.1c-4.4,0-6.7-2.4-6.7-6.8c0-3.1,0.1-6.3,0.1-9.4c6.9-2.9,14-1.4,21.1-1
	c1.6,0.1,2.8,1.4,2.9,3C260.6,163.7,261.7,168.5,259,173z"/>
<path class="st20" d="M193,94c-8.8-8.1-8.8-18.6,0-24.3c6.5-4.2,13.2-2.3,16.7,4.8c-3.9,1.3-8.2-0.7-12,1.3c-3.9,5.2-3.8,6,0.3,10.8
	C200.4,89.3,198.1,92.6,193,94z"/>
<path class="st28" d="M320,163.1c-0.1,0.7,2.4,1.3,0.4,1.8c-3.5,0.8-6.8,0-9.6-2.8c-6.2-6.3-12.6-12.4-18.9-18.6
	c-5-4.9-4.9-6.9,0.1-11.9c1.5-1.5,2.7-3.4,5.1-3.8c1.2,1.1,4.2-1.3,4,2.2c-6.7,5.7-7,9.1-0.7,14.9C306.9,151,312.6,158,320,163.1z"
	/>
<path class="st29" d="M287.9,110c0.1,2.2-1.7,3.1-2.9,4.4c-5.7,5.8-11.6,11.5-17.3,17.4c-6.4,6.5-6.4,13.1,0.2,19.6
	c10.7,10.5,21.5,20.9,32.3,31.3c1.2,1.1,2.5,2.1,4.2,3.5c-2.9,1.4-3.9-0.3-4.9-1.3c-12.2-11.8-24.4-23.6-36.6-35.5
	c-5.5-5.4-5.5-10.2-0.2-15.6c7-7.1,14.1-14.2,21.2-21.2C285,111.4,286,109.9,287.9,110L287.9,110z"/>
<path class="st30" d="M259,173c-0.4-5.2,2.3-11.9-1.1-15.2c-3.1-3-9.8-0.7-14.8-0.9c-2.3-0.1-4.6,0-6.9,0c1-3.7,3.4-5.3,7.2-5.2
	c5,0.1,9.9,0,14.9,0c4.3,0,6.7,2.2,6.8,6.6c0.1,2.8,0.1,5.6,0,8.4C264.8,170.5,263,172.9,259,173z"/>
<path class="st29" d="M216.6,73.6c-0.1,0.9-0.5,1.3-1.3,1.4c-1.4,0.2-2-0.6-2.7-1.7c-3.9-6-7.8-11.9-11.8-17.9
	c-6.4-9.7-12.9-19.3-19.3-29c-0.9-1.3-2.6-2.9,0-3.9c2.2-0.9,1.9,1.3,2.6,2.4c4.9,7.7,9.9,15.3,15,22.9c5.4,8.1,10.9,16.2,16.4,24.3
	C216,72.6,216.3,73.1,216.6,73.6z"/>
<path class="st31" d="M252.9,211c-4.9,0.9-6.5-1.3-5.9-6c0.3-2.3,0-4.6,0-7c0-4.6,0.1-9.3,0.1-13.9c0-2,0.5-3.1,2.8-3.1
	c2.4,0,3.2,0.9,3.2,3.2C253,193.1,253,202,252.9,211z"/>
<path class="st32" d="M190.1,54.7C172.4,63,169.6,79,173,90.3c1.2,4,3.6,7.4,6,10.8c0.4,1,1.6,2.1-0.2,3
	c-8.9-8.4-11.7-18.8-8.6-30.4c3-11.2,10.1-18.8,21.5-21.9C193.7,54.2,190.2,53.5,190.1,54.7z"/>
<path class="st5" d="M193,94c1.9-1.8,3.9-3.5,5.9-5.3c-6.5-4.9-6.8-9.4-1.2-12.8c15.6,0,31.2,0.1,46.8,0.1c1.5,0,2.9-0.5,4.4-0.7
	c7.4,1.8,15,0.3,22.5,0.8c1.9,0.1,4-0.7,5.6,1c-24.2,0-48.4,0-72.7,0c-1.8,0-3.7-0.6-5.3,0.8c-4.4,1.8-4,4.4-1.1,7.3
	c1.5,1.6,3.4,0.9,5.2,0.9c9.6,0.1,19.2,0,28.8,1c-7.6,0-15.2,0-22.8,0c-1.8,0-3.7-0.6-5.2,0.9c-2.8,3-5.2,6.4-9.1,8.1
	C194.3,95.3,192.6,95.7,193,94z"/>
<path class="st33" d="M336,187c-3.8-6.8-2-15.2,4-19c5.5,0.4,5.5,0.4,3.2,5.4c-2,4.2-4,8.4-0.1,12.7
	C341.1,188.7,338.5,187.4,336,187z"/>
<path class="st34" d="M333.1,150.9c0-3-0.1-6-0.1-8.9c1.6-6.8,5.1-12,13.1-15.2c-9,8.6-11.3,17.5-6.2,27.9c1.3,2.7,4.6,3.9,4.9,7.2
	C339.1,160.1,336.3,155.3,333.1,150.9z"/>
<path class="st31" d="M187.1,197c-1.7,0-3.3,0.1-5,0c-1.7-0.1-3.9,0.7-4.1-2.2c-0.1-2.7,1.3-4.5,4-4.7c4.1-0.2,8.3-0.1,12.4-0.1
	c1.3,0,3.4-0.6,2.6,2.1c-0.5,1.8,1,4.7-2.6,4.9C192,197.1,189.5,197,187.1,197C187.1,197,187.1,197,187.1,197z"/>
<path class="st31" d="M288.6,197c-1.5,0-3,0.1-4.5,0c-1.7-0.1-3.9,0.7-4.1-2.2c-0.2-2.3,0.9-4.3,3-4.5c4.8-0.4,9.6-0.3,14.4-0.2
	c1.6,0,1.7,1.4,1.2,2.6c-0.7,1.6,0.1,4.3-3,4.3C293.2,196.9,290.9,197,288.6,197C288.6,197,288.6,197,288.6,197z"/>
<path class="st35" d="M239,140.4c-7,7-13.5,13.5-20,20.1c-1.3,1.3-2.4,1.6-3.7,0.1c-1.5-1.6,0.1-2.4,1-3.2
	c5.6-5.4,11.3-10.7,16.9-16.1C234.6,139.9,236.2,139.7,239,140.4z"/>
<path class="st36" d="M237.8,92.3c-2.1,12.8-13.1,23.4-19.7,20.9C224.3,106.5,230.7,99.8,237.8,92.3z"/>
<path class="st5" d="M145,175c2.3-2.5,4.8-1.9,7.1-0.1c2.7,2.1,5,2.8,7.9,0.2c2.8-2.6,5.8-1.8,8.6,0.4c1.6,1.3,3.3,2.4,5.3,0.6
	c4.4-4.1,8.4-2.8,12.2,1c0.4,0.8,2.5,1.9-0.4,2.1c-3.7-2.6-7.2-4.6-11.5-0.7c-2.2,2-4.8,0.6-6.8-1c-2.1-1.6-4.1-2.2-6.3-0.4
	c-3.3,2.8-6.6,2.8-9.8,0c-1.2-1.1-2.7-1.3-4.2-1.1C146.2,175.9,145.4,175.8,145,175z"/>
<path class="st37" d="M193,173.6c0-4.2,0.1-8.5,0.1-12.7c3.1-2.3,5.1,1.9,7.9,1.2c0,4.4,0,8.8,0,13.5C198,175.3,196,172.2,193,173.6
	z"/>
<path class="st5" d="M278.2,77.1c-0.5,13.2,3.7,24.6,13.3,33.8c-1.2-0.3-2.4-0.6-3.5-0.8c0,0,0,0,0,0c-1-0.7-2-1.4-3-2.1
	c-3.9-6.3-6.7-13.1-9-20.1c-3-1.7-6.2-0.7-9.3-0.8c-8.5-0.2-16.9-0.1-25.4-1c5.9,0,11.9,0,17.8,0c3,0,6,0,9,0c9,0,9,0,8.9-9
	C277.4,77,277.8,77.1,278.2,77.1z"/>
<path class="st12" d="M336,187c2.4-0.2,5,1.2,7.1-0.9c0.5,2.3,1.7,3,4.2,3.1c5.9,0.2,11.9-1.4,17.6,0.9c-1.6,1.5-3.3,1.3-5,0.1
	c-18.3-0.1-36.7-0.1-55-0.2c2.4-1.7,5.1-0.8,7.7-0.8c9.4-0.1,18.8-0.1,28.2-1.1c-8.9,0-17.8,0-26.7,0c-1.8,0-3.7,0.6-5.2-0.8
	C318.1,187.1,327.1,187,336,187z"/>
<path class="st38" d="M316.7,130.9c-3.4,1.9-7.2,0.4-10.7,1.1c-0.6-0.3-2.3-0.3-1.7-1.1c2.1-2.9,4.3-6.1,7.7-7.3
	C316,122.1,317.4,124.6,316.7,130.9z"/>
<path class="st39" d="M209,144.6c-0.1-3.5,0.8-6.4,2.4-9.2c0.6-0.9,1.5-1.4,2.6-1c1.4,0.6,0.6,1.6,0.3,2.5
	c-1.7,5.2-1.9,10.4,0.4,15.5c0.5,1.1,0.9,2.4-0.4,3.1c-1.5,0.7-2-0.8-2.6-1.7C209.8,151,208.8,147.8,209,144.6z"/>
<path class="st35" d="M194.9,96c2.8-2.9,4.9-6.7,9.1-8.1c0.6,0.2,1.8,0.5,1.3,1c-6.2,6.1-11.4,13.2-18.9,18c-0.1,0-0.3-0.1-0.9-0.4
	C188.7,102.9,191.8,99.4,194.9,96z"/>
<path class="st40" d="M128.5,197.9c13.1,0,33.1-0.1,46.2-0.1c7.4,0.1,14.9,0.1,22.3,0.2c0,0.3,0,0.5-0.1,0.8c-20.9,0-47.5,0-68.4,0
	C128.8,198.5,128.2,198.2,128.5,197.9z"/>
<path class="st41" d="M267,116.2c-21-0.1-42-0.1-62.9-0.2c1.3-1.6,3.1-1,4.6-1c17.9,0,35.9,0,53.8,0C264,115,265.8,114.4,267,116.2z
	"/>
<path class="st42" d="M329.1,149.1c1.8-0.4,2.2,2.2,4,1.9c-2.9,2.4-5.8,4.8-8,7.9c-1,0.6-1.9,1.4-2.9,1.8c-0.8,0.4-1.7,0.1-2.2-0.6
	c-0.7-0.9,0.1-1.5,0.6-2.1C323.4,155.1,326.2,152.1,329.1,149.1z"/>
<path class="st41" d="M229,112.9c17,0.7,34,0.5,51,0.1c-1,1.3-2.4,1-3.7,1c-14.6,0-29.2,0-43.8,0C231.3,114,229.9,114.3,229,112.9z"
	/>
<path class="st43" d="M360,190.1c1.7,0,3.3,0,5-0.1c1.9,1.5,3.7,3.7,2.5,5.9c-1.3,2.4-4.2,0.8-6.4,0.9
	C360.8,194.5,360.4,192.3,360,190.1z"/>
<path class="st44" d="M258.2,134.8c-2.2,4.2-2.4,8-0.8,11.9c0.4,0.8,1.2,1.9-0.5,2.2c-1.5,0.3-2.1-0.5-2-2c0.1-2.8,0.4-5.7-0.8-8.4
	C252,134.2,254,133.8,258.2,134.8z"/>
<path class="st42" d="M188.9,177.8c4.9,2.4,6.9,5.8,10.2,8.5C195.4,186.2,192.8,184.1,188.9,177.8z"/>
<path class="st45" d="M142.2,113.1c14.6,0,29.3-0.1,43.9-0.1c5.1,0,6.9,1.9,7,6.9c0.1,7,0.1,14,0.1,21c-3.6,2.8-7.2,3.7-11.2,0.7
	c-2.2-1.6-4.5-0.7-6.5,0.7c-2.7,1.9-5.2,1.8-7.8-0.1c-2.4-1.7-4.9-2-7.4-0.1c-2.6,2-5.2,2.2-7.7,0.1c-3.7-3-6.9-0.3-10.3,0.7
	C142.3,133,142.2,123.1,142.2,113.1z"/>
<path class="st17" d="M119,132c-12.9-0.1-25.7-0.2-38.6-0.3c-3.6-5.3-1.5-12.8,4.4-15.5c14.9,0,29.8-0.1,44.7-0.2
	c2.4,0,3.5,0.5,3.6,3.3c0.7,12.4,0.8,12.4-11.7,12.6C120.6,131.8,119.8,131.9,119,132z"/>
<path class="st46" d="M80.6,168.1c3.2,3.2,6.4,6.3,9.5,9.5c2.9,3,5.8,2.9,8.6-0.1c2-2.2,3.9-4.5,6.5-7.6c0.6,9-1.8,12.1-8.9,13.6
	c-8.3,1.7-16.6,3.4-24.8,5.6c-5.2,1.4-9.3,0.8-12.6-3.8c-1.1-1.6-2.7-2.9-4.1-4.3c0.1-1.7,1.5-2,2.7-2.5c7.1-3,14.8-4.5,20.8-9.9
	C78.9,168,79.8,167.9,80.6,168.1z"/>
<path class="st26" d="M127,149c0,7.1-0.1,14.2,0.2,21.3c0.2,3.8-0.7,6.7-3.8,9.1c-1.8,1.4-3.3,3.3-5,4.8c-1.3,1.1-2.3,3.6-4.3,2.5
	c-1.9-1-2.9-3.1-2.9-5.4c0-6.8-0.1-13.6-0.1-20.4c1.3,0.2,2.3,0,3.3-1.2c2.5-3,5.4-5.7,8.2-8.4C123.7,150.2,124.8,148.4,127,149z"/>
<path class="st47" d="M80.6,168.1c-7.1,7.3-17.1,8.7-25.8,12.8c-5,1.7-10,3.3-15,5c-2.5-0.8-4.9-1.7-8.4-2.9
	c9.3-3.2,17.3-6.4,25.6-8.9c7.9-2.3,14.4-6.8,20.3-12.2c3.4-3.1,6.9-3.9,10.7-1C86.5,164.3,82.7,165.4,80.6,168.1z"/>
<path class="st48" d="M31.1,185.9c2.2,0.7,4.5,1.4,6.7,2.2c6,2.7,12.1,5.4,18.1,8.2c0,0.3,0,0.5,0,0.8c-7.3,0-14.6,0-21.9,0
	c-2.1-0.8-4.1-1.5-6.2-2.3C25.9,189.3,26.5,187.4,31.1,185.9z"/>
<path class="st49" d="M94.2,109.6c13.2-0.2,26.3-0.3,39.5-0.5c0.9,0.9,2.4,1.6,1.9,3.2c-0.5,1.4-2,0.8-3.1,0.8
	c-13.1,0-26.2-0.1-39.4-0.2C92.3,111.4,92.9,110.4,94.2,109.6z"/>
<path class="st31" d="M97,141.1c-2.3-1.4-2.5-3.6-1.8-5.7c0.8-2.3,3.1-1.3,4.8-1.3c6-0.1,11.9-0.1,17.9-0.1c2.1,6.2,1.6,7-4.6,7
	C107.9,141.1,102.4,141.1,97,141.1z"/>
<path class="st50" d="M105.9,195.7c-6.7,4-11.5,2.9-17-3.8c0-0.3,0-0.8,0.2-0.9c6.2-3.4,12.7-5.5,19.9-3.9
	C109.4,190.5,107.4,193,105.9,195.7z"/>
<path class="st51" d="M132,193c0.3,2.9-0.7,4.3-3.9,4c-3.6-0.3-7.3,0.1-10.9-0.1c-1.3-0.1-4,1.3-3.5-1.6c0.3-2.1-0.7-5.7,3.9-5.4
	c3.8,0.3,7.6,0,11.4,0C131.2,189.8,132.3,190.7,132,193z"/>
<path class="st52" d="M127,149c-4.1,4-8.3,7.9-12.4,11.9c-1.3,1.3-2.3,2.3-3.6,0.1c-1.7-1.6-0.8-2.7,0.6-4c3.6-3.4,7.1-7,10.7-10.4
	c1.1-1.1,2.2-3.2,4-2.2C127.9,145.3,127,147.4,127,149z"/>
<path class="st53" d="M120.4,144.4c-8.3,6.8-13.5,15.9-24.1,20.1C100.8,157.4,115.9,144.5,120.4,144.4z"/>
<path class="st54" d="M84.9,191.9c1.6,1.4,3.2,2.8,4.8,4.1c0.4,1.2-0.5,1.4-1.3,1.4c-6.8-0.2-13.6,0.5-20.4-0.4
	c-1.9-0.4-3.8-0.8-5.8-1.2c-0.1-0.3-0.3-0.5-0.4-0.8C69.5,193.5,77,191.3,84.9,191.9z"/>
<path class="st55" d="M84.8,116.1c-5.2,4.1-5.1,9.7-4.4,15.5c-5.9,1.1-5.4-2.9-5.4-6.6c0-4.3,2.5-6.9,6-8.9
	C82.3,116.1,83.6,116.1,84.8,116.1z"/>
<path class="st56" d="M84.9,191.9c-7.6,2-15.2,3.2-23.1,3.2c-1.4-0.2-3,0-4.2-1.9c7.5-0.1,14.6-1.5,21.6-3.2
	c2.1-0.5,3.9,0.3,5.7,1.3C84.9,191.5,84.9,191.7,84.9,191.9z"/>
<path class="st57" d="M108.9,187.1c-6.8,1.1-13.8,1.5-20.1,4.8c-0.7-0.6-1.5-1.3-2.2-1.9c0-0.7-0.7-1.7,0.6-2
	c6.3-1.3,12.7-2.8,19.2-3.1C108,184.9,109.2,185.2,108.9,187.1z"/>
<path class="st40" d="M132,193c-1-1-2-2.1-3-3.1c-2.6-2.4-6.5,0.8-8.9-2.1c1.6,0,3.3,0,4.9,0c7.5,0,9.2,1.7,9.1,9.3
	C132.3,196.2,133.6,193.9,132,193z"/>
<path class="st40" d="M132.7,198.8c-6.5,0-13.1,0-19.6,0c0-0.3-0.1-0.5-0.1-0.8C119.6,198.5,126.2,197,132.7,198.8z"/>
<path class="st33" d="M94.2,109.6c-0.4,1.1-0.7,2.2-1.1,3.3c-1.3-0.1-2.6-0.2-3.9-0.3C90.3,110.7,91.5,108.9,94.2,109.6z"/>
<path class="st58" d="M76.2,63.8c1.5,4.5,2,8.8-0.9,13c-3.5,5-3.4,10.3-0.6,15.6c2.4,4.7,3.6,9.6,3.5,14.9c-0.1,3.9-1.6,6-5.7,5.8
	c-3.2-0.1-6.3-0.2-9.5-0.2c-1.4-1.8-3.8-2.3-5.1-4.2c4.4-1.2,8.8,0,13.3-0.5c1-0.1,2.7,0.3,2.5-1.5c-0.1-1.2-1.5-0.9-2.5-1
	c-4.4-0.5-8.8,0.9-13.2-0.6c4.9-6.9,5.8-14.8,5.9-22.8c0-1.8-0.7-3.6,0.2-5.3c1.7-0.6,5.1,0.9,5.1-1.3c0-3.1-3.5-0.8-5.2-1.8
	c-2.3-4.6-1.8-9.2,0.1-13.7c3,0.1,6.1-0.9,9,0.6c-0.3,1.2-2,2.3-0.5,3.5C73.7,65.5,74.9,63.9,76.2,63.8z"/>
<path class="st59" d="M45.5,116c9,0,18-0.1,27-0.1c0.8,0,1.6,0,3.1,0c-2.8,4.5-4,9-3.1,13.9c0.4,2.2-1.2,2-2.5,2
	c-9.3-0.1-18.7-0.2-28-0.2C37.9,126.6,39.6,119.3,45.5,116z"/>
<path class="st60" d="M124.4,86c4.9,6.7,2,15.9-6.3,19.5c-3.2,1.4-6.6,2.3-10.1,0.8c-5.2-3.3-8.5-7.6-7-14.2c1.2-5.4,5-7.8,9.9-6.2
	c1,0.8,1.6,2.7,3.4,1C117.3,83.4,120.9,84.7,124.4,86z"/>
<path class="st31" d="M79.1,141.1c-3.5,0-7,0-10.5,0c-2.7,0-4.5-1.4-4.5-4.2c0-2.9,2.3-2.7,4.3-2.7c6.7,0,13.3,0.2,20-0.1
	c4.1-0.2,3.4,2.5,3.7,4.9c0.5,3.6-2.3,2-3.6,2.1C85.5,141.2,82.3,141.1,79.1,141.1C79.1,141.1,79.1,141.1,79.1,141.1z"/>
<path class="st61" d="M110.9,85.9c-3.9-0.4-6.8,1.1-8.3,4.8c-1.6,4.1-0.9,8,1.9,11.5c1.1,1.4,3.6,1.6,3.4,4
	c-9-2.8-13.4-10.9-9.9-18.2C100.9,82.2,107.3,81.2,110.9,85.9z"/>
<path class="st62" d="M45.5,116c-4.4,4.4-5.2,9.7-3.5,15.5c-3.1-0.6-7.8,2.8-8.4-3.5c-0.7-7.1,2.3-11.5,8-12.1
	C42.9,115.8,44.2,116,45.5,116z"/>
<path class="st63" d="M64.1,77.1c2.9,8.4-0.7,16.2-1.8,24.3c-0.4,3.1-1.6,4-4.3,3.8c-1-4.1,0.5-7.8,2.3-11.3
	c2.5-4.8,3.6-9.6,1.4-14.7C60.2,75.9,62.7,77.1,64.1,77.1z"/>
<path class="st64" d="M64.1,60.3c0,4.6,0,9.2-0.1,13.7c-1.9,0.1-4.7,1.3-5.4-0.7c-0.9-2.8-1.4-6.4,0.4-9.1
	C60.1,62.6,61.2,60,64.1,60.3z"/>
<path class="st65" d="M124.4,86c-3.4-0.1-6.8-0.2-10.1,1c-1.3-3.7,1.4-3.8,3.7-4C120.5,82.8,122.9,83.6,124.4,86z"/>
<path class="st66" d="M76.2,63.8c-0.8,1.4-1.7,3.2-3.7,2.7c-1.3-0.3-2.3-1.4-2.4-2.9c-0.1-1.9,1.3-2.5,2.9-2.8
	C74.1,61.9,75.1,62.8,76.2,63.8z"/>
<path class="st67" d="M57.8,108.7c2.9,0,4.9,0.9,5.1,4.2C59.6,113.5,57.7,112.4,57.8,108.7z"/>
<path class="st26" d="M328,40c-2.3,0-4.7,0.1-7,0.1c-4.8-0.6-9.7-0.5-14.3,1.1c-2,0.7-3.3,0.7-4.6-1.3c-2.9-4.6-6.1-9.1-9.2-13.7
	c-1.1-1.6-2.1-3.9,0.9-4c5.1-0.1,10.3-1.3,15.3,0.5c-0.4,0.5-0.8,0.9,0.1,1.4c3.8,1.9,6.9,4.8,8.6,8.6c2.1,4.5,6.3,4.7,10,6.1
	C327.9,39.3,328,39.7,328,40z"/>
<path class="st68" d="M353.1,112.1c-1.4-1.5,0.4-2,1.1-2.7c13.5-13.8,12.3-37.8-0.6-51.5c-8.7-9.2-18.8-13.8-31.3-13.9
	c-0.8,0-1.5-0.5-2.3-0.8c1.1-0.3,2.1-0.7,3.2-1c18.8-0.8,33.1,6.5,41.2,23.8C372,82,366.9,101.5,353.1,112.1z"/>
<path class="st69" d="M327.8,38.9c-5,1.2-8.5-0.5-10.8-5.2c-2.2-4.5-6.4-7.4-10.8-10.3c1.3-0.2,2.1-0.3,2.9-0.5
	C318.3,24.7,323.7,31.1,327.8,38.9z"/>
<path class="st29" d="M300.7,42.6c-0.1,0.3-0.2,0.9-0.5,1.1c-1,0.6-2,0.2-2.6-0.6c-1.4-1.9-2.6-3.8-4-5.7c-2.5-3.7-5.1-7.4-7.6-11
	c-1-1.4-1.5-2.8,0.3-3.8c1.9-1,2.3,0.2,3,1.9c2.4,5.5,6.3,10,9.5,15.1C299.3,40.4,299.9,41.4,300.7,42.6z"/>
<path class="st70" d="M297,235c-5.5-0.4-11.4,2.1-16-3c-0.3-5.1-2-10.2-0.6-15.4c0.3-1.2,0.4-2.6-0.4-3.8c0.1-1-0.3-2.1,0.8-2.8
	c4,0.4,7.9,0.3,11.9,0.5c2.2,0.1,4.8,0.4,5.1,3C298.6,220.7,299.9,227.9,297,235z"/>
<path class="st2" d="M240,210c0.3,0.3,0.6,0.7,1,1c0,4.2,0,8.5,0,13.3c1.9-2.1,0-4.8,2-6.3c1.6,1.9,1.6,3.8,0.1,5.8
	c0.7,1.5,2.1,1.2,3.4,1.2c4.6,0.1,9.2-0.4,13.7,1.1c1.9,2.9,1.2,6,0.8,9.1c0,0.3,0,0.6,0,0.9c-6.3,0-12.7-0.3-19,0.1
	c-3,0.2-2.9-1.5-3.3-3.3c-0.6-6.4-0.2-12.9-0.1-19.3C238.6,212.2,239,210.9,240,210z"/>
<path class="st30" d="M297,235c0-6.3-0.1-12.6,0.1-18.9c0.1-3-0.9-4.2-4-4c-3,0.2-6,0-9,0.1c-1.5,0-3.1,0.1-3.2-2.1
	c3.1-3.3,13.5-5.7,17.3-3.5c2.2,1.2,4.2,3,4,6.3c-0.3,5.1-0.1,10.3-0.1,15.5C302.3,231.9,300.6,234.2,297,235z"/>
<path class="st26" d="M243.1,223.8c0-1.9-0.1-3.8-0.1-5.8c0,0,0,0,0,0c9.4-1,18.8-0.4,28.3-0.4c3.1,0,3.5,2.2,1.4,6.2
	C262.8,223.8,253,223.8,243.1,223.8z"/>
<path class="st2" d="M272.7,223.9c1-4.2,0.2-6.3-5-6.1c-8.2,0.4-16.5,0.2-24.7,0.2c1.1-1.4,2.7-1,4.1-1c10.2,0.2,20.4-0.4,30.6,0.3
	c4,0.3,1.4-3.1,2.3-4.5c1.8,6.3,0.2,12.8,0.9,19.2c-0.3-0.4-0.9-0.8-0.8-1.2C281.4,224.5,277.5,223.7,272.7,223.9z"/>
<path class="st2" d="M261.9,214.8c-6,2.7-12.3,0.7-18.4,1c-0.4,0-1.1-0.9-1.1-1.3c0-0.5,0.8-1.3,1.1-1.3c6.1,0.4,12.4-1.7,18.4,1.1
	c-6.1,0.5-12.2-0.1-16.8,0.2C249.7,214.6,255.8,214.3,261.9,214.8z"/>
<path class="st71" d="M261,235.1c-2.4-2.8-1-6-0.8-9.1c1.6,0.5,3.9-1,4.7,1.6C265.8,231.2,263.2,233.1,261,235.1z"/>
<path class="st72" d="M261.9,214.8c-6.1,0-12.2,0-18.2,0c6.1-0.7,12.1-1.4,18.2-0.5C261.8,214.3,261.9,214.8,261.9,214.8z"/>
<path class="st73" d="M31.1,185.9c-4.1,1.8-3.1,5.5-3.2,8.8c-2.3-0.7-4.5-1.6-5.3-3.9c-0.6-1.8-1-4.1,0.8-5.5
	C26,183.3,28.6,184.7,31.1,185.9z"/>
<path class="st3" d="M68,197.1c5.9,0,11.9,0.1,17.8,0c1.3,0,3,0.9,3.9-1c0.8,0.5,1.2,1.7,0.1,1.7C82.6,197.8,75.2,199,68,197.1z"/>
<path class="st69" d="M366.9,138.2c-2.2-5.8-9.2-9.2-16.8-8.1c-1.1,0.2-2.1,1.3-3.2,0c8.9-6.5,20.1-4.8,26.1,3.9
	c6.2,8.8,3.5,20.1-6.1,26.1c0-3.1,3-4.9,3.4-8c0.2-1.8,0.5-3.5,0.4-5.3C369.6,143.9,368.4,141,366.9,138.2z"/>
<path class="st2" d="M322,121c4,0,8,0,12,0.1C330,122.6,326,122.6,322,121z"/>
<path class="st70" d="M222,235.1c-3.5-2.9-4.5-6.7-3.9-11.1c0.6-4.7-1-9.5,0.7-14.2c4,0.6,7.9,0.5,11.9,0.6c3.9,0.1,6,2,5.8,5.8
	c-0.3,6.2,1.4,12.6-1.2,18.7C230.8,235.8,226.4,235.7,222,235.1z"/>
<path class="st74" d="M235,235c0-6.4-0.1-12.8,0-19.3c0.1-2.8-0.9-3.9-3.7-3.7c-3,0.2-5.9,0-8.9,0c-1.7,0-3.4,0.2-3.6-2.2
	c5.2-5.5,15.3-5.5,21.3,0.1c0,5.9-0.1,11.9,0,17.8c0,1.8,0,3.6-1.3,5.1c-0.9,0.8-1.8,1.6-2.8,2.4C235.6,235.4,235.2,235.4,235,235z"
	/>
<path class="st2" d="M235,235c0.3,0.1,0.7,0.1,1,0.2c-4.7,1.2-9.3,1.4-14-0.1C226.3,235.1,230.7,235,235,235z"/>
<path class="st75" d="M341,53.2c12.3,5.2,20,18,18.7,31.2c-1.3,13.5-10.9,24.7-23.7,27.6c-1.9-1-1.2-2.6-0.9-4.1
	c5.6-3.3,11.1-6.7,14.4-12.6c5.8-10.5,5.4-26.4-8-36.3c-1.3-1-2.9-1.6-3.7-3.3C337.9,53.6,339.9,54,341,53.2z"/>
<path class="st76" d="M334.9,108.9c0.4,1,0.7,2,1.1,3l-0.4,0.2l-0.4-0.1c-4.5,0.7-9,0.6-13.5,0.1c-14.3-2.2-25-15.6-24.8-31
	c0.2-14.6,11.5-28.5,24.9-30.1c6.5-0.8,13-0.5,19.2,2.1c-0.6,1.3-1.6,1.8-3,1.8c-1.4,1.2-2.8,0.4-4.3,0.1
	c-14-3.1-27.2,4.7-31.7,18.6c-4.3,13.3,2.1,27.4,15.1,33.1c4.5,1.9,9,3.7,14,1.9C332.3,108.2,333.7,107.9,334.9,108.9z"/>
<path class="st75" d="M321.6,112.1c4.5,0,9,0,13.5-0.1C330.7,113.7,326.2,113.6,321.6,112.1z"/>
<path class="st77" d="M366.9,138.2c3.3,2,4.8,4.7,4,8.6c-3.2,3.2-11.8,4.9-15.6,2.8c-2.4-1.3-3.6-3.4-3.2-6.2
	c0.5-2.9,2.4-4.8,5.3-5.1C360.6,138,363.8,138.2,366.9,138.2z"/>
<path class="st78" d="M70.9,94c-0.1,0.9-0.7,1.7-1.9,1.7c-1.2,0-1.9-0.8-1.7-1.9c0.2-1.1,1-1.7,2.1-1.6C70.4,92.2,70.9,92.8,70.9,94
	z"/>
<path class="st23" d="M334.9,108.9c-7.8,2.8-15.1,1.6-22-2.9c-6.6-4.3-11-10.2-12.7-17.8c-3.6-15.3,5.9-30.6,21.3-34.5
	c5.7-1.5,11.1-0.4,16.6,1.3c9.2,5.5,15.6,12.9,16.3,24C355.1,93.7,347.8,103.1,334.9,108.9z"/>
<path class="st79" d="M365,147.7c-1.8-0.3-3-1.4-3.1-3.2c-0.1-1.9,1.1-3.2,3-3.3c2.2-0.1,3.5,1.3,3.4,3.4
	C368.3,146.4,367,147.4,365,147.7z"/>
<path class="st80" d="M359.3,144.5c-0.5,1.1,1.9,3.2-1,3.3c-2,0.1-3.3-1.4-3.4-3.5c-0.1-1.9,1-3.2,2.9-3.3
	C361.1,140.9,359,143.2,359.3,144.5z"/>
<path class="st81" d="M326.9,64.9c6.4-0.4,11.7,2.1,15.4,7.7c1,1.5,2.1,2.3,3.8,2.8c2.7,1,4.3,3.2,4.3,6.1c0.1,3-1.4,5.3-4.1,6.2
	c-2.3,0.8-3.4,2.4-4.7,4.1c-5.3,6.7-12.4,8-20.2,6.3c-7.2-1.6-11.5-6.3-12.9-13.5C306.5,73.9,314.8,64.9,326.9,64.9z"/>
<path class="st82" d="M340.6,88.1c-4.4,6.8-10.2,9.1-16.5,7.2c-6.3-2-10.4-7.8-10-14.4c0.3-6,4.9-11.6,10.7-12.9
	c6.4-1.5,12,1,15.2,7c-3.8,0-7.4,0-11,0c-4.3,0-7.1,1.8-7.3,6.3c-0.2,4.1,2.6,6.6,7.4,6.7C332.7,88.1,336.4,88.1,340.6,88.1z"/>
<path class="st21" d="M332.5,77.9c4.2-1.4,5.3,0.9,4.8,5.3c-0.2,1.5-0.4,2.1-1.8,2c-2.2,0-4.3,0-6.5,0c-2.6,0-4.8-0.9-4.7-3.9
	c0.1-2.6,2.1-3.5,4.6-3.5C329.9,77.9,330.9,77.9,332.5,77.9z"/>
<path class="st83" d="M343.8,85.8c-2.4-0.4-4-1.6-4-4.2c0-2.3,1.4-3.7,3.6-3.8c2.5-0.1,4.1,1.3,4.3,3.7
	C347.9,84,346.2,85.3,343.8,85.8z"/>
</svg>
