<?xml version="1.0" encoding="utf-8"?>
<!-- Generator: Adobe Illustrator 21.0.2, SVG Export Plug-In . SVG Version: 6.00 Build 0)  -->
<svg version="1.1" id="Layer_1" xmlns="http://www.w3.org/2000/svg" xmlns:xlink="http://www.w3.org/1999/xlink" x="0px" y="0px"
	 viewBox="0 0 1000 733" style="enable-background:new 0 0 1000 733;" xml:space="preserve">
<style type="text/css">
	.st0{opacity:0.43;fill:url(#SVGID_1_);enable-background:new    ;}
	.st1{fill:#283035;}
	.st2{fill:#D2DCE6;}
	.st3{fill:#FF5C5C;}
	.st4{opacity:0.3;enable-background:new    ;}
	.st5{fill:#FFFFFF;}
	.st6{opacity:0.3;}
	.st7{fill:#E5E5E5;}
	.st8{fill:#CFD1D0;}
	.st9{fill:#686B6D;}
	.st10{fill:#EAD57D;}
	.st11{fill:#E5C66E;}
	.st12{fill:#5CBF84;}
	.st13{fill:#4FB277;}
	.st14{fill:#54AF79;}
	.st15{opacity:0.14;enable-background:new    ;}
	.st16{fill:#353F49;}
	.st17{fill:#EAEEEF;}
	.st18{opacity:0.35;fill:#283035;enable-background:new    ;}
	.st19{fill:#46BB86;}
	.st20{fill:#389ABE;}
	.st21{fill:#E5C689;}
	.st22{fill:#F2F3F4;}
	.st23{fill:#FFA49F;}
	.st24{fill:#F7B66F;}
	.st25{fill:#EDA762;}
	.st26{fill:#8EAFBF;}
	.st27{fill:#8BAFC1;}
	.st28{fill:#3BBC88;}
	.st29{fill:#EFAA65;}
</style>
<g>
	<g id="Layer_1_1_">
		
			<linearGradient id="SVGID_1_" gradientUnits="userSpaceOnUse" x1="505.007" y1="274.725" x2="505.007" y2="799.205" gradientTransform="matrix(1 0 0 1 0 -80)">
			<stop  offset="0" style="stop-color:#FFFFFF"/>
			<stop  offset="9.300000e-02" style="stop-color:#FFFFFF;stop-opacity:0.864"/>
			<stop  offset="0.284" style="stop-color:#FFFFFF;stop-opacity:0.605"/>
			<stop  offset="0.466" style="stop-color:#FFFFFF;stop-opacity:0.389"/>
			<stop  offset="0.633" style="stop-color:#FFFFFF;stop-opacity:0.221"/>
			<stop  offset="0.784" style="stop-color:#FFFFFF;stop-opacity:0.1"/>
			<stop  offset="0.911" style="stop-color:#FFFFFF;stop-opacity:2.600000e-02"/>
			<stop  offset="1" style="stop-color:#FFFFFF;stop-opacity:0"/>
		</linearGradient>
		<polygon class="st0" points="814,701.6 196,701.6 427,201.7 583,201.7 		"/>
		<g>
			<path class="st1" d="M182.6,565.8c-0.3,0-0.5,0-0.8-0.1c-2.2-0.5-3.5-2.6-3.1-4.7l7.8-37.3c0.3-1.5,1.5-2.7,3-3.1l41.2-9.3
				c2.2-0.5,4.3,0.9,4.8,3c0.5,2.2-0.9,4.3-3,4.8l-38.7,8.8l-7.3,34.8C186.1,564.5,184.4,565.8,182.6,565.8z"/>
		</g>
		<path class="st2" d="M310.7,435.9h337.8c9.5,0,17.1,7.7,17.1,17.1v222.9l0,0h-372l0,0V453C293.6,443.5,301.3,435.9,310.7,435.9z"
			/>
		<g>
			<path class="st1" d="M665.6,678.9h-372c-1.7,0-3-1.3-3-3V453c0-11.1,9-20.1,20.1-20.1l0,0h337.8c11.1,0,20.1,9,20.1,20.1v222.9
				C668.6,677.5,667.2,678.9,665.6,678.9z M296.6,672.9h366V453c0-7.8-6.3-14.1-14.1-14.1H310.7l0,0c-7.8,0-14.1,6.3-14.1,14.1
				L296.6,672.9L296.6,672.9z"/>
		</g>
		<rect x="321.6" y="464.1" class="st3" width="316" height="184"/>
		<g class="st4">
			<path class="st5" d="M557,621.8h-52c-1.7,0-3-1.3-3-3s1.3-3,3-3h52c1.7,0,3,1.3,3,3S558.7,621.8,557,621.8z"/>
		</g>
		<g class="st6">
			<path class="st5" d="M631.8,561.6c2.1-0.1,3.9,1.2,4.5,3.1v-11.5c-1.1-0.3-2.2-0.5-3.4-0.5h-1.2c-2.5,0-3.8,1.3-3.8,3.8v1.3
				C628,560.3,629.3,561.6,631.8,561.6z"/>
			<path class="st5" d="M636.3,616.5c-0.6,2-2.5,3.2-4.5,3.1c-2.5,0-3.8,1.3-3.8,3.8v1.3c0,2.5,1.3,3.8,3.8,3.8h1.2
				c1.1,0,2.3-0.2,3.4-0.5V616.5z"/>
		</g>
		<g>
			<path class="st1" d="M637.6,651.1h-316c-1.7,0-3-1.3-3-3v-184c0-1.7,1.3-3,3-3h316c1.7,0,3,1.3,3,3v184
				C640.6,649.8,639.2,651.1,637.6,651.1z M324.6,645.1h310v-178h-310V645.1z"/>
		</g>
		<path class="st7" d="M252.5,676h454.1c2.2,0,4,1.8,4,4v4.8c0,11-9,20-20,20H268.5c-11,0-20-9-20-20V680
			C248.5,677.8,250.3,676,252.5,676z"/>
		<path class="st8" d="M690.6,695.8H268.5c-9.9,0-18.3-7.3-19.8-17.1c-0.2,0.4-0.2,0.9-0.2,1.3v4.8c0,11,9,20,20,20h422.1
			c11,0,20-9,20-20V680c0-0.4-0.1-0.9-0.2-1.3C709,688.5,700.6,695.8,690.6,695.8z"/>
		<g>
			<path class="st1" d="M690.6,707.8H268.5c-12.7,0-23-10.3-23-23V680c0-3.9,3.1-7,7-7h454.1c3.9,0,7,3.1,7,7v4.8
				C713.6,697.5,703.3,707.8,690.6,707.8z M252.5,679c-0.6,0-1,0.4-1,1v4.8c0,9.4,7.6,17,17,17h422.1c9.4,0,17-7.6,17-17V680
				c0-0.6-0.4-1-1-1H252.5z"/>
		</g>
		<path class="st9" d="M437.6,675.9h84l0,0l0,0c0,4.4-3.6,8-8,8h-68C441.2,683.9,437.6,680.3,437.6,675.9L437.6,675.9L437.6,675.9z"
			/>
		<g>
			<path class="st1" d="M513.6,685.9h-68c-5.5,0-10-4.5-10-10c0-1.1,0.9-2,2-2h84c1.1,0,2,0.9,2,2
				C523.6,681.4,519.1,685.9,513.6,685.9z M439.9,677.9c0.8,2.3,3,4,5.7,4h68c2.6,0,4.8-1.7,5.7-4H439.9z"/>
		</g>
		<circle class="st9" cx="478.8" cy="449.6" r="8"/>
		<g>
			<path class="st1" d="M478.8,459.6c-5.5,0-10-4.5-10-10s4.5-10,10-10s10,4.5,10,10S484.3,459.6,478.8,459.6z M478.8,443.6
				c-3.3,0-6,2.7-6,6s2.7,6,6,6s6-2.7,6-6S482.1,443.6,478.8,443.6z"/>
		</g>
		<path class="st10" d="M153.5,704.8h49.1c3.5,0,6.5-2.6,6.9-6.1l13.1-102.9h-89.2l13.1,102.9C147,702.2,149.9,704.8,153.5,704.8z"
			/>
		<path class="st11" d="M147,595.8l10.4,95c0.4,4,3.9,7.1,7.9,7.1h44.2l-0.1,0.8c-0.4,3.5-3.4,6.1-6.9,6.1h-49.1
			c-3.5,0-6.5-2.6-6.9-6.1l-13.1-102.9H147z"/>
		<g>
			<path class="st1" d="M202.6,707.8h-49.1c0,0,0,0,0,0c-5,0-9.3-3.8-9.9-8.7l-13.1-102.9c-0.1-0.9,0.2-1.7,0.7-2.4
				c0.6-0.6,1.4-1,2.3-1h89.2c0.9,0,1.7,0.4,2.3,1c0.6,0.6,0.8,1.5,0.7,2.4l-13.1,102.9C211.8,704,207.6,707.8,202.6,707.8z
				 M153.5,701.8h49.1c2,0,3.7-1.5,4-3.5l12.7-99.5h-82.4l12.7,99.5C149.7,700.3,151.5,701.8,153.5,701.8z"/>
		</g>
		<polygon class="st12" points="219.3,675.2 225.6,625.4 130.4,625.4 136.8,675.2 		"/>
		<polygon class="st13" points="219.3,675.2 225.6,625.4 130.4,625.4 136.8,675.2 		"/>
		<path class="st12" d="M218.9,669.4l5.3-44h-79.8l4.9,40.5c0.2,2,1.9,3.5,3.9,3.5L218.9,669.4z"/>
		<g>
			<path class="st1" d="M219.3,678.2h-82.5c-1.5,0-2.8-1.1-3-2.6l-6.3-49.8c-0.1-0.9,0.2-1.7,0.7-2.4c0.6-0.6,1.4-1,2.3-1h95.2
				c0.9,0,1.7,0.4,2.3,1c0.6,0.6,0.8,1.5,0.7,2.4l-6.3,49.8C222,677,220.8,678.2,219.3,678.2z M139.4,672.2h77.2l5.6-43.8h-88.4
				L139.4,672.2z"/>
		</g>
		<path class="st12" d="M228.3,595.8H127.7c-6.1,0-11-4.9-11-11l0,0c0-6.1,4.9-11,11-11h100.7c6.1,0,11,4.9,11,11l0,0
			C239.3,590.8,234.4,595.8,228.3,595.8z"/>
		<path class="st13" d="M228.3,595.8H127.7c-6.1,0-11-4.9-11-11l0,0c0-6.1,4.9-11,11-11h100.7c6.1,0,11,4.9,11,11l0,0
			C239.3,590.8,234.4,595.8,228.3,595.8z"/>
		<path class="st12" d="M230.7,591H139c-4.8,0-8.6-3.9-8.6-8.6l0,0c0-4.8,3.9-8.6,8.6-8.6h91.7c4.8,0,8.6,3.9,8.6,8.6l0,0
			C239.3,587.2,235.5,591,230.7,591z"/>
		<g>
			<path class="st1" d="M228.3,598.8H127.7c-7.7,0-14-6.3-14-14s6.3-14,14-14h100.7c7.7,0,14,6.3,14,14S236.1,598.8,228.3,598.8z
				 M127.7,576.8c-4.4,0-8,3.6-8,8s3.6,8,8,8h100.7c4.4,0,8-3.6,8-8s-3.6-8-8-8H127.7z"/>
		</g>
		<polygon class="st12" points="138,573.8 218,573.8 216.4,561.8 139.6,561.8 		"/>
		<polygon class="st14" points="139.6,561.8 163.1,561.8 157.5,573.8 138,573.8 		"/>
		<g>
			<path class="st1" d="M218,576.8h-80c-0.9,0-1.7-0.4-2.3-1s-0.8-1.5-0.7-2.4l1.6-12c0.2-1.5,1.5-2.6,3-2.6h76.8
				c1.5,0,2.8,1.1,3,2.6l1.6,12c0.1,0.9-0.1,1.7-0.7,2.4C219.7,576.4,218.9,576.8,218,576.8z M141.4,570.8h73.2l-0.8-6h-71.6
				L141.4,570.8z"/>
		</g>
		<path class="st7" d="M721.1,704.9c0.1-16,13.1-28.9,29.2-28.8c15.9,0.1,28.7,12.9,28.8,28.8H721.1z"/>
		<path class="st8" d="M750.1,695.7c8.4,0.1,16.4-3.5,22-9.7c-10.4-12.1-28.7-13.5-40.8-3.1c-1.1,1-2.2,2-3.1,3.1
			C733.7,692.3,741.7,695.8,750.1,695.7z"/>
		<g>
			<path class="st1" d="M779.1,707.9h-58c-0.8,0-1.6-0.3-2.1-0.9c-0.6-0.6-0.9-1.3-0.9-2.1c0.1-17.6,14.4-31.8,32-31.8
				c0.1,0,0.1,0,0.2,0c17.4,0.1,31.7,14.4,31.8,31.8c0,0.8-0.3,1.6-0.9,2.1C780.7,707.6,779.9,707.9,779.1,707.9z M724.3,701.9h51.6
				c-1.6-12.8-12.5-22.7-25.6-22.8C737,679,725.9,689,724.3,701.9z"/>
		</g>
		<path class="st15" d="M375,499.8h152c4.4,0,8,3.6,8,8v118c0,4.4-3.6,8-8,8H375c-4.4,0-8-3.6-8-8v-118
			C367,503.4,370.6,499.8,375,499.8z"/>
		<path class="st16" d="M367.2,492.8h152c4.4,0,8,3.6,8,8v118c0,4.4-3.6,8-8,8h-152c-4.4,0-8-3.6-8-8v-118
			C359.2,496.4,362.8,492.8,367.2,492.8z"/>
		<g>
			<path class="st1" d="M519.2,628.8h-152c-5.5,0-10-4.5-10-10v-118c0-5.5,4.5-10,10-10h152c5.5,0,10,4.5,10,10v118
				C529.2,624.3,524.7,628.8,519.2,628.8z M367.2,494.8c-3.3,0-6,2.7-6,6v118c0,3.3,2.7,6,6,6h152c3.3,0,6-2.7,6-6v-118
				c0-3.3-2.7-6-6-6H367.2z"/>
		</g>
		<path class="st17" d="M367.2,492.8h152c4.4,0,8,3.6,8,8v12l0,0h-168l0,0v-12C359.2,496.4,362.8,492.8,367.2,492.8z"/>
		<g>
			<path class="st1" d="M527.2,514.8h-168c-1.1,0-2-0.9-2-2v-12c0-5.5,4.5-10,10-10l0,0h152c5.5,0,10,4.5,10,10v12
				C529.2,513.9,528.3,514.8,527.2,514.8z M361.2,510.8h164v-10c0-3.3-2.7-6-6-6h-152c-3.3,0-6,2.7-6,6V510.8z"/>
		</g>
		<circle class="st18" cx="373.5" cy="502.8" r="3.1"/>
		<circle class="st18" cx="383.3" cy="502.8" r="3.1"/>
		<circle class="st18" cx="392.7" cy="502.8" r="3.1"/>
		<g>
			<rect x="367" y="518.3" class="st19" width="11" height="3"/>
		</g>
		<g>
			<rect x="382" y="518.3" class="st19" width="30" height="3"/>
		</g>
		<g>
			<rect x="367" y="526.3" class="st20" width="45" height="3"/>
		</g>
		<g>
			<rect x="376" y="534.3" class="st21" width="22" height="3"/>
		</g>
		<g>
			<rect x="402" y="534.3" class="st22" width="24" height="3"/>
		</g>
		<g>
			<rect x="388" y="542.3" class="st22" width="46" height="3"/>
		</g>
		<g>
			<rect x="388" y="550.3" class="st23" width="34" height="3"/>
		</g>
		<g>
			<rect x="376" y="558.3" class="st22" width="50" height="3"/>
		</g>
		<g>
			<rect x="367" y="565.3" class="st20" width="27" height="3"/>
		</g>
		<g class="st6">
			<path class="st5" d="M599.6,605.5c0-4-1.5-6.7-4.6-8.4c-2.2-1.2-3.1-2.1-3.1-4.1v-3.5c0-2.4,1.1-3,3-4.2c3.1-1.3,4.7-4.2,4.7-8.5
				v-7.6c0-6.1,2.2-10.6,5.5-12.5c2.4-1.7,5.3-2.7,8.3-2.8h1.2c2.5,0,3.8,1.3,3.8,3.8v1.3c0,2.4-1.3,3.7-3.8,3.7
				c-3.5,0-5.2,2.5-5.2,7.6v9.4c0.2,4.7-2.4,9-6.6,11.1l-0.8,0.3v0.2c0.9,0.3,1.8,0.7,2.5,1.3c2.2,1.3,4.9,4.5,4.9,10v10.5
				c0,5,1.7,7.5,5.2,7.5c2.5,0,3.8,1.3,3.8,3.8v1.3c0,2.5-1.3,3.8-3.8,3.8h-1.2c-3-0.1-5.8-1.1-8.3-2.8c-3.2-1.9-5.5-6.5-5.5-12.5
				V605.5z"/>
		</g>
		<g>
			<path class="st1" d="M177.8,662.7c-9.4,0-18.9-3-26.7-9l-1.1,1c-0.6,0.6-1.5,0.6-2.1,0c-0.6-0.6-0.6-1.5,0-2.1l2-1.9
				c0.5-0.5,1.4-0.6,2-0.1c15,12.2,36.8,12.2,51.8,0c0.6-0.5,1.4-0.4,2,0.1l2.5,2.4c0.6,0.6,0.6,1.5,0,2.1c-0.6,0.6-1.5,0.6-2.1,0
				l-1.6-1.5C196.6,659.7,187.2,662.7,177.8,662.7z"/>
		</g>
		<g>
			<path class="st1" d="M163.1,649c-0.8,0-1.5-0.7-1.5-1.5v-3.9c0-3.2,2.6-5.8,5.8-5.8s5.8,2.6,5.8,5.8c0,0.8-0.7,1.5-1.5,1.5
				s-1.5-0.7-1.5-1.5c0-1.5-1.2-2.8-2.8-2.8s-2.8,1.2-2.8,2.8v3.9C164.6,648.3,163.9,649,163.1,649z"/>
		</g>
		<g>
			<path class="st1" d="M192.9,649c-0.8,0-1.5-0.7-1.5-1.5v-3.9c0-1.5-1.2-2.8-2.8-2.8s-2.8,1.2-2.8,2.8c0,0.8-0.7,1.5-1.5,1.5
				s-1.5-0.7-1.5-1.5c0-3.2,2.6-5.8,5.8-5.8s5.8,2.6,5.8,5.8v3.9C194.4,648.3,193.8,649,192.9,649z"/>
		</g>
		<path class="st7" d="M802.8,574.9h77.8c5,0,9.1,4.1,9.1,9.1v111.8c0,5-4.1,9.1-9.1,9.1h-77.8c-5,0-9.1-4.1-9.1-9.1V584
			C793.7,579,797.8,574.9,802.8,574.9z"/>
		<path class="st8" d="M880.6,574.9h-1.2c0.2,0.7,0.3,1.4,0.3,2.1v111.8c0,5-4.1,9.1-9.1,9.1H794c1,4.1,4.6,7,8.8,7h77.8
			c5,0,9.1-4.1,9.1-9.1V584C889.7,579,885.7,574.9,880.6,574.9C880.6,574.9,880.6,574.9,880.6,574.9z"/>
		<g>
			<path class="st1" d="M880.6,707.9h-77.8c-6.7,0-12.1-5.4-12.1-12.1V584c0-6.7,5.4-12.1,12.1-12.1h77.8c6.7,0,12.1,5.4,12.1,12.1
				v111.8C892.7,702.5,887.3,707.9,880.6,707.9z M802.8,577.9c-3.4,0-6.1,2.7-6.1,6.1v111.8c0,3.4,2.7,6.1,6.1,6.1h77.8
				c3.4,0,6.1-2.7,6.1-6.1V584c0-3.4-2.7-6.1-6.1-6.1H802.8z"/>
		</g>
		<path class="st24" d="M857.7,567.3h-8v-3c0-4.4-3.6-8-8-8s-8,3.6-8,8v3h-8c-4.4,0-8,3.6-8,8s3.6,8,8,8h32c4.4,0,8-3.6,8-8
			S862.2,567.3,857.7,567.3z"/>
		<path class="st25" d="M861.5,568.3c1.2,4.2-1.3,8.6-5.6,9.8c-0.7,0.2-1.4,0.3-2.1,0.3h-32c-1.3,0-2.6-0.3-3.7-0.9
			c0.9,3.5,4.1,5.9,7.7,5.9h32c4.4,0,8-3.6,8-8C865.7,572.4,864.1,569.6,861.5,568.3z"/>
		<path class="st25" d="M845.7,559.3v3h3.7c-0.6-2.2-2-4-4-5.1C845.6,557.9,845.7,558.6,845.7,559.3z"/>
		<g>
			<path class="st1" d="M857.7,586.3h-32c-6.1,0-11-4.9-11-11s4.9-11,11-11h5c0-6.1,4.9-11,11-11s11,4.9,11,11h5c6.1,0,11,4.9,11,11
				S863.8,586.3,857.7,586.3z M825.7,570.3c-2.8,0-5,2.2-5,5s2.2,5,5,5h32c2.8,0,5-2.2,5-5s-2.2-5-5-5h-8c-1.7,0-3-1.3-3-3v-3
				c0-2.8-2.2-5-5-5s-5,2.2-5,5v3c0,1.7-1.3,3-3,3H825.7z"/>
		</g>
		<circle class="st26" cx="841.7" cy="604" r="8.3"/>
		<g>
			<path class="st1" d="M841.7,615.3c-6.2,0-11.3-5.1-11.3-11.3s5.1-11.3,11.3-11.3s11.3,5.1,11.3,11.3S848,615.3,841.7,615.3z
				 M841.7,598.7c-2.9,0-5.3,2.4-5.3,5.3s2.4,5.3,5.3,5.3s5.3-2.4,5.3-5.3S844.7,598.7,841.7,598.7z"/>
		</g>
		<g>
			<path class="st1" d="M830,632.7h-20c-1.7,0-3-1.3-3-3s1.3-3,3-3h20c1.7,0,3,1.3,3,3S831.6,632.7,830,632.7z"/>
		</g>
		<g>
			<path class="st1" d="M830,659.8h-20c-1.7,0-3-1.3-3-3s1.3-3,3-3h20c1.7,0,3,1.3,3,3S831.6,659.8,830,659.8z"/>
		</g>
		<g>
			<path class="st1" d="M830,687h-20c-1.7,0-3-1.3-3-3s1.3-3,3-3h20c1.7,0,3,1.3,3,3S831.6,687,830,687z"/>
		</g>
		<g>
			<path class="st27" d="M848.4,637.5c-0.6,0-1.2-0.3-1.6-0.8l-5.2-6.9c-0.7-0.9-0.5-2.1,0.4-2.8c0.9-0.7,2.1-0.5,2.8,0.4l4,5.3
				l14-10.5c0.9-0.7,2.1-0.5,2.8,0.4c0.7,0.9,0.5,2.1-0.4,2.8l-15.6,11.7C849.2,637.4,848.8,637.5,848.4,637.5z"/>
		</g>
		<g>
			<path class="st27" d="M848.4,664.7c-0.1,0-0.2,0-0.3,0c-0.5-0.1-1-0.4-1.3-0.8l-5.2-6.9c-0.7-0.9-0.5-2.1,0.4-2.8
				c0.9-0.7,2.1-0.5,2.8,0.4l4,5.3l14-10.5c0.9-0.7,2.1-0.5,2.8,0.4c0.7,0.9,0.5,2.1-0.4,2.8l-15.6,11.7
				C849.2,664.6,848.8,664.7,848.4,664.7z"/>
		</g>
		
			<rect x="894.1" y="631" transform="matrix(0.9905 -0.1378 0.1378 0.9905 -82.7763 130.2188)" class="st28" width="10" height="64"/>
		<g>
			<path class="st1" d="M898.6,697.3c-0.4,0-0.9-0.1-1.2-0.4c-0.4-0.3-0.7-0.8-0.8-1.3l-8.8-63.4c-0.1-0.5,0.1-1.1,0.4-1.5
				c0.3-0.4,0.8-0.7,1.3-0.8l9.9-1.4c1.1-0.2,2.1,0.6,2.3,1.7l8.8,63.4c0.2,1.1-0.6,2.1-1.7,2.3l-9.9,1.4
				C898.7,697.3,898.7,697.3,898.6,697.3z M892,633.6l8.3,59.4l5.9-0.8l-8.3-59.4L892,633.6z"/>
		</g>
		<polygon class="st7" points="908.5,693.9 898.6,695.3 904.9,704.5 		"/>
		<g>
			<path class="st1" d="M904.9,706.5c-0.7,0-1.3-0.3-1.6-0.9l-6.3-9.2c-0.4-0.6-0.5-1.3-0.2-1.9c0.3-0.6,0.9-1.1,1.6-1.2l9.9-1.4
				c0.7-0.1,1.4,0.2,1.8,0.7c0.4,0.5,0.6,1.3,0.4,1.9l-3.6,10.6c-0.2,0.7-0.9,1.2-1.6,1.3C905.1,706.5,905,706.5,904.9,706.5z
				 M902,696.8l2.2,3.3l1.3-3.7L902,696.8z"/>
		</g>
		
			<rect x="890.7" y="620.8" transform="matrix(0.9904 -0.1381 0.1381 0.9904 -77.8576 129.4198)" class="st7" width="6" height="10"/>
		<g>
			<path class="st1" d="M891.4,633.2c-0.4,0-0.9-0.1-1.2-0.4c-0.4-0.3-0.7-0.8-0.8-1.3l-1.4-9.9c-0.2-1.1,0.6-2.1,1.7-2.3l5.9-0.8
				c1.1-0.1,2.1,0.6,2.3,1.7l1.4,9.9c0.1,0.5-0.1,1.1-0.4,1.5c-0.3,0.4-0.8,0.7-1.3,0.8l-5.9,0.8
				C891.6,633.2,891.5,633.2,891.4,633.2z M892.3,623l0.8,5.9l2-0.3l-0.8-5.9L892.3,623z"/>
		</g>
		<g>
			<path class="st1" d="M908.6,657.5c-0.7,0-1.3-0.3-1.7-1c-1.2-2-2.1-4.3-2.6-6.6c-0.6-3.1-0.2-5.6,0.2-7.5
				c0.3-1.8,0.5-2.7,0.1-3.6c-0.1-0.1-0.1-0.3-0.2-0.4c-0.4-0.9-0.7-1.6-3.6-2c-1.1-0.2-1.9-1.2-1.7-2.3s1.2-1.8,2.3-1.7
				c4.7,0.7,5.9,2.6,6.7,4.4c0,0.1,0.1,0.2,0.1,0.3c1,2.1,0.6,4.2,0.2,6.1c-0.3,1.8-0.7,3.6-0.2,6c0.4,1.9,1.1,3.7,2.1,5.3
				c0.6,0.9,0.3,2.2-0.7,2.7C909.3,657.5,909,657.5,908.6,657.5z"/>
		</g>
		<g>
			<path class="st1" d="M946.5,707.9h-25.8c-1.7,0-3-1.3-3-3s1.3-3,3-3h25.8c1.7,0,3,1.3,3,3S948.2,707.9,946.5,707.9z"/>
		</g>
		<g>
			<path class="st1" d="M909.5,707.9H234.3c-1.7,0-3-1.3-3-3s1.3-3,3-3h675.2c1.7,0,3,1.3,3,3S911.2,707.9,909.5,707.9z"/>
		</g>
		<g>
			<path class="st1" d="M222.6,707.9H114.8c-1.7,0-3-1.3-3-3s1.3-3,3-3h107.9c1.7,0,3,1.3,3,3S224.3,707.9,222.6,707.9z"/>
		</g>
		<g>
			<path class="st1" d="M103.5,707.9H80.3c-1.7,0-3-1.3-3-3s1.3-3,3-3h23.2c1.7,0,3,1.3,3,3S105.2,707.9,103.5,707.9z"/>
		</g>
		<ellipse transform="matrix(0.1602 -0.9871 0.9871 0.1602 223.1657 669.4625)" class="st5" cx="505" cy="203.6" rx="24" ry="24"/>
		<path class="st24" d="M436.1,209c-4.8,0-8.6-3.9-8.6-8.7c0-0.3,0-0.7,0.1-1c4.7-39.6,37.6-70.3,77.4-70.3s72.8,30.7,77.4,70.3
			c0.6,4.7-2.8,9-7.5,9.6c-0.3,0-0.7,0.1-1,0.1H436.1z"/>
		<path class="st29" d="M517,129.9L517,129.9c-0.3,0-0.5-0.1-0.8-0.1c-0.9-0.1-1.8-0.3-2.7-0.4c-0.4,0-0.8-0.1-1.3-0.1
			c-0.8-0.1-1.5-0.1-2.3-0.2c-0.4,0-0.9-0.1-1.3-0.1c-1.2-0.1-2.4-0.1-3.6-0.1s-2.4,0-3.6,0.1c-0.5,0-1.1,0.1-1.6,0.1
			c-0.6,0-1.2,0.1-1.8,0.1c-0.7,0.1-1.4,0.1-2.1,0.2c-0.3,0-0.7,0.1-1,0.1c-36,4.8-64.3,34.8-67.5,72.2c-0.3,3.6,2.3,6.7,5.9,7
			c0.2,0,0.4,0,0.6,0h142.5c3.6,0,6.5-2.9,6.5-6.4c0-0.2,0-0.3,0-0.5C579.6,165.2,552.2,135.5,517,129.9z M454,186.9
			c6.9-25.1,25.7-45.2,50.2-53.8c24.6,8.6,43.4,28.7,50.3,53.8c1.6,5.7-1.8,11.6-7.6,13.2c-0.9,0.3-1.9,0.4-2.8,0.4h-79.7
			c-5.9,0-10.8-4.8-10.8-10.7C453.7,188.8,453.8,187.9,454,186.9z"/>
		<g>
			<path class="st1" d="M436.2,212C436.2,212,436.2,212,436.2,212c-3.1,0-6.1-1.2-8.3-3.4c-2.2-2.2-3.4-5.2-3.4-8.3
				c0-0.5,0-0.9,0.1-1.4c4.9-41.5,39.5-72.9,80.4-72.9c40.9,0,75.5,31.3,80.4,72.9c0.4,3.1-0.5,6.1-2.4,8.6c-1.9,2.5-4.7,4-7.8,4.4
				c-0.5,0.1-0.9,0.1-1.4,0.1H436.2z M436.2,206h137.7c0.2,0,0.5,0,0.7,0c1.5-0.2,2.9-1,3.8-2.1c0.9-1.2,1.3-2.7,1.2-4.2
				c-4.6-38.6-36.6-67.6-74.4-67.6c-37.9,0-69.9,29.1-74.4,67.6c0,0.2,0,0.5,0,0.7c0,1.5,0.6,2.9,1.7,4
				C433.2,205.4,434.7,206,436.2,206L436.2,206L436.2,206z"/>
		</g>
		<g>
			<rect x="502" class="st1" width="6" height="129"/>
		</g>
	</g>
</g>
</svg>
