<?xml version="1.0" encoding="utf-8"?>
<!-- Generator: Adobe Illustrator 21.1.0, SVG Export Plug-In . SVG Version: 6.00 Build 0)  -->
<svg version="1.1" id="Calque_1" xmlns="http://www.w3.org/2000/svg" xmlns:xlink="http://www.w3.org/1999/xlink" x="0px" y="0px"
	 viewBox="0 0 99 102.5" style="enable-background:new 0 0 99 102.5;" xml:space="preserve">
<style type="text/css">
	.st0{fill:#322B3D;}
	.st1{fill:#535066;}
	.st2{fill:#BAB9C2;}
	.st3{fill:#FFFFFD;}
	.st4{fill:#BBBDC4;}
	.st5{fill:#9697A1;}
	.st6{fill:#2D2D4A;}
	.st7{fill:#BEBDC3;}
	.st8{fill:#CBCCCC;}
	.st9{fill:#FFFFFF;}
	.st10{fill:#AF1917;}
	.st11{fill:#E77A4D;}
	.st12{fill:#F8C45D;}
	.st13{fill:#68C3C9;}
	.st14{fill:#53B2B7;}
	.st15{fill:#5C979B;}
	.st16{fill:#C17625;}
	.st17{fill:#342944;}
	.st18{fill:#898A9E;}
</style>
<g>
	<path class="st0" d="M143.4,20.5c0,0-3.3,1.7-3.3,4.6c0,0-0.4,3.7,5.9,4.1l34.5,3.7l6.6,0.8l15.1,15.1l1.5,8l3.8,35.6
		c0,0,0.4,3.9,4.1,4.1c0,0,3.3,0.4,4.5-4.5l14.5-35.9c0,0,6.9-13.4-8.8-20.9l-9-9c0,0,6.7-8.9,15.7-2c0,0,4.7,3.2,3.7,9l1.2,0.1
		c0,0,1.4-6.6-3.6-10.9c0,0-7.3-8-19,2l-9.3-9.4c0,0-4.6-15.9-23.3-8.4L143.4,20.5z"/>
	<circle class="st1" cx="186.8" cy="19.3" r="15.6"/>
	<circle class="st1" cx="217.9" cy="49.9" r="15.6"/>
	<g>
		<circle class="st2" cx="182.9" cy="15.4" r="3.3"/>
		<circle class="st2" cx="182.9" cy="23.3" r="3.3"/>
		<circle class="st2" cx="191.1" cy="23.3" r="3.3"/>
		<circle class="st2" cx="191.1" cy="15.4" r="3.3"/>
	</g>
	<g>
		<circle class="st2" cx="213.3" cy="45.9" r="3.3"/>
		<circle class="st2" cx="213.3" cy="53.8" r="3.3"/>
		<circle class="st2" cx="221.6" cy="53.8" r="3.3"/>
		<circle class="st2" cx="221.6" cy="45.9" r="3.3"/>
	</g>
</g>
<g>
	<circle class="st3" cx="-88.9" cy="20.7" r="19.6"/>
	<circle class="st3" cx="-49.6" cy="20.7" r="19.6"/>
	<circle class="st4" cx="-49.6" cy="20.7" r="17.9"/>
	<circle class="st4" cx="-88.9" cy="20.7" r="17.9"/>
	<circle class="st5" cx="-49.6" cy="20.7" r="12.8"/>
	<circle class="st5" cx="-88.9" cy="20.7" r="12.8"/>
	<rect x="-105.8" y="47.9" class="st3" width="5.4" height="14.6"/>
	<rect x="-100.4" y="49.4" class="st6" width="5.4" height="10.7"/>
	<path class="st3" d="M-52.1,39.4c-9.5,0.6-35.9,0-35.9,0s-4.5-0.1-4.5,2.8v23c0,0-0.1,2.8,2.8,2.8c1,0,5.9,0,12.2,0v4.8h2.3
		l-12.3,23.3c0,0-1.9,4.3,1.3,0.8l15.2-24h4.4l15.8,24.5c0,0,1.6,1.9,0.5-0.9l-12.1-23.6h1.7v-4.8c7.7,0,13.9,0,13.9,0
		s3.2-0.1,3.2-3s0-22.1,0-22.1S-42.6,38.9-52.1,39.4z"/>
	<rect x="-94.9" y="48.8" class="st7" width="2.4" height="11.7"/>
	<circle class="st4" cx="-69.1" cy="53.7" r="11.4"/>
	<circle class="st5" cx="-69.1" cy="53.7" r="4.6"/>
	<path class="st6" d="M-52.6,43.5c-2,0-3.7,1.6-3.7,3.7l-12.9,5.7c-0.1,0-0.1,0-0.2,0.1h-0.1l0,0c-0.3,0.2-0.6,0.6-0.6,1
		c0,0.7,0.6,1.2,1.2,1.2c0.3,0,0.5-0.1,0.7-0.2l0,0l13-5.3l0,0c0.7,0.6,1.5,1,2.5,1c2,0,3.7-1.6,3.7-3.7
		C-49,45.1-50.6,43.5-52.6,43.5z"/>
	<rect x="-43.7" y="43.3" class="st6" width="5.4" height="5.6"/>
	<rect x="-38.3" y="42.3" class="st4" width="2.6" height="7.5"/>
	<path class="st8" d="M-71.1,72.8l2.4,25.4c0,0,0.7,2.6,1.4,0l0.6-25.4H-71.1z"/>
</g>
<g>
	<path class="st9" d="M69.6,153.7c0,0-1.7-0.7-0.5-2.6c0,0,2.7-4,0.9-6.6c-1.9-2.7-8.6-1.4-8.6-1.4s-9,1.7-11.1,11.1
		c0,0-1.6,9.3,9.7,8c0,0,7.2-0.6,10.4-6C70.4,156.2,70.8,154.2,69.6,153.7z M64.1,155.1c-0.3-0.5,0-1.3,0.7-1.8
		c0.3,0.7,0.7,1.5,1,2.2C65.1,155.7,64.4,155.5,64.1,155.1z M67.5,154.1c-0.2-0.5-0.4-1-0.6-1.5c0.3,0.1,0.5,0.2,0.6,0.4
		C67.8,153.3,67.7,153.7,67.5,154.1z"/>
	<ellipse transform="matrix(0.9155 -0.4024 0.4024 0.9155 -58.3502 34.2684)" class="st10" cx="52.4" cy="156" rx="0.9" ry="0.5"/>
	
		<ellipse transform="matrix(0.9155 -0.4024 0.4024 0.9155 -56.8447 34.2555)" class="st11" cx="53.1" cy="152.4" rx="1.3" ry="0.7"/>
	
		<ellipse transform="matrix(0.9155 -0.4024 0.4024 0.9155 -53.7862 36.3733)" class="st12" cx="59.7" cy="146.2" rx="1.5" ry="0.8"/>
	<ellipse transform="matrix(0.9155 -0.4024 0.4024 0.9155 -52.9176 38.1277)" class="st13" cx="64.3" cy="145" rx="1.5" ry="0.7"/>
	<ellipse transform="matrix(0.9155 -0.4024 0.4024 0.9155 -53.0773 39.798)" class="st14" cx="68.2" cy="146.2" rx="1.2" ry="0.7"/>
	<ellipse transform="matrix(0.8902 -0.4556 0.4556 0.8902 -60.4276 47.692)" class="st15" cx="68.7" cy="149.2" rx="0.9" ry="0.5"/>
	
		<ellipse transform="matrix(0.9155 -0.4024 0.4024 0.9155 -55.2433 34.8773)" class="st16" cx="55.4" cy="148.9" rx="1.4" ry="0.9"/>
	<path class="st17" d="M59,137.4c0,0-1,4,1.8,5.4c0.5-0.1,0.9-0.2,1.1-0.4C61.9,142.2,62.8,138.5,59,137.4z"/>
	<path class="st18" d="M61.9,142.4L61.9,142.4c-0.3,0.1-0.6,0.3-1.1,0.4c0,0,0,0,0.1,0c0,0,0.6,2,1.7,4.9c1.1-0.2,1.6-0.5,1.9-0.7
		C63.7,145.4,62.8,143.8,61.9,142.4z"/>
	<path class="st12" d="M70,161.7c0,0-0.4-1.4-1.1-3.6c-0.3,0.4-0.7,0.7-1.1,1c0.5,0.9,1.1,1.8,1.7,2.6
		C69.5,161.7,70.3,162.6,70,161.7z"/>
	<path class="st12" d="M67,152.6c-0.7-1.8-1.6-3.8-2.5-5.7c-0.3,0.2-0.8,0.5-1.9,0.7c0.6,1.7,1.4,3.6,2.3,5.6c0.3,0.7,0.7,1.5,1,2.2
		c0.2-0.1,0.4-0.2,0.6-0.3c0.5-0.3,0.9-0.7,1.1-1.1C67.3,153.6,67.2,153.1,67,152.6z"/>
</g>
<g>
	<path class="st9" d="M85.4,65.9c0,0-6.6-2.7-2.1-9.9c0,0,10.6-15.4,3.4-25.7S53.5,25,53.5,25s-34.9,6.7-42.9,42.9
		c0,0-6.2,35.9,37.5,31c0,0,27.9-2.3,40.3-23.3C88.3,75.6,90,67.9,85.4,65.9z M63.9,71.3c-1.2-2,0.1-5,2.8-7.1
		c1.3,2.8,2.6,5.7,4,8.5C67.7,73.6,64.9,73.1,63.9,71.3z M77.2,67.5c-0.7-1.9-1.4-3.8-2.2-5.7c1.1,0.3,1.9,0.8,2.4,1.7
		C78.1,64.6,77.9,66.1,77.2,67.5z"/>
	<ellipse transform="matrix(0.9155 -0.4024 0.4024 0.9155 -28.6166 13.7817)" class="st10" cx="18.5" cy="75" rx="3.6" ry="1.9"/>
	<ellipse transform="matrix(0.9155 -0.4024 0.4024 0.9155 -22.7111 13.7274)" class="st11" cx="21.3" cy="60.9" rx="5.1" ry="2.8"/>
	<ellipse transform="matrix(0.9155 -0.4024 0.4024 0.9155 -10.9455 21.9112)" class="st12" cx="46.7" cy="37" rx="6" ry="3.3"/>
	<ellipse transform="matrix(0.9155 -0.4024 0.4024 0.9155 -7.5477 28.7245)" class="st13" cx="64.6" cy="32.3" rx="5.7" ry="2.8"/>
	<ellipse transform="matrix(0.9155 -0.4024 0.4024 0.9155 -8.1409 35.2719)" class="st14" cx="79.9" cy="37" rx="4.6" ry="2.5"/>
	<ellipse transform="matrix(0.8902 -0.4556 0.4556 0.8902 -13.082 42.5376)" class="st15" cx="81.7" cy="48.4" rx="3.4" ry="1.8"/>
	<ellipse transform="matrix(0.9155 -0.4024 0.4024 0.9155 -16.5633 16.1747)" class="st16" cx="30.2" cy="47.5" rx="5.4" ry="3.6"/>
	<path class="st17" d="M44.3,2.8c0,0-3.8,15.6,6.8,20.8c1.9-0.4,3.3-1,4.3-1.5C55.5,21.5,58.7,7.2,44.3,2.8z"/>
	<path class="st18" d="M55.4,22.1L55.4,22.1c-1,0.5-2.4,1-4.3,1.4c0.1,0.1,0.2,0.1,0.3,0.2c0,0,2.4,7.8,6.5,18.9
		c4.1-0.8,6.3-1.9,7.4-2.8C62.3,33.7,59,27.7,55.4,22.1z"/>
	<path class="st12" d="M86.9,97.2c0,0-1.5-5.5-4.2-14c-1.2,1.4-2.7,2.8-4.3,4c2.1,3.5,4.2,6.9,6.4,9.9
		C84.9,97.2,88.1,100.7,86.9,97.2z"/>
	<path class="st12" d="M75,61.8c-2.8-7.1-6-14.6-9.7-22c-1.1,0.9-3.2,2.1-7.4,2.8c2.4,6.4,5.4,13.9,8.8,21.6c1.3,2.8,2.6,5.7,4,8.5
		c0.8-0.3,1.7-0.6,2.5-1.1c1.9-1.1,3.3-2.6,4.1-4.1C76.5,65.7,75.8,63.8,75,61.8z"/>
</g>
</svg>
