<svg xmlns="http://www.w3.org/2000/svg" viewBox="0 0 100 100" width="500px" height="500px"><path fill="#c7ede6" d="M87.215,56.71C88.35,54.555,89,52.105,89,49.5c0-6.621-4.159-12.257-10.001-14.478	C78.999,35.015,79,35.008,79,35c0-11.598-9.402-21-21-21c-9.784,0-17.981,6.701-20.313,15.757C36.211,29.272,34.638,29,33,29	c-7.692,0-14.023,5.793-14.89,13.252C12.906,43.353,9,47.969,9,53.5C9,59.851,14.149,65,20.5,65c0.177,0,0.352-0.012,0.526-0.022	C21.022,65.153,21,65.324,21,65.5C21,76.822,30.178,86,41.5,86c6.437,0,12.175-2.972,15.934-7.614C59.612,80.611,62.64,82,66,82	c4.65,0,8.674-2.65,10.666-6.518C77.718,75.817,78.837,76,80,76c6.075,0,11-4.925,11-11C91,61.689,89.53,58.727,87.215,56.71z"/><path fill="#fff" d="M15.5,46h-10C5.224,46,5,45.776,5,45.5S5.224,45,5.5,45h10c0.276,0,0.5,0.224,0.5,0.5 S15.777,46,15.5,46z"/><path fill="#fff" d="M18.5,46h-1c-0.276,0-0.5-0.224-0.5-0.5s0.224-0.5,0.5-0.5h1c0.276,0,0.5,0.224,0.5,0.5 S18.777,46,18.5,46z"/><path fill="#fff" d="M23.491,48H14.5c-0.276,0-0.5-0.224-0.5-0.5s0.224-0.5,0.5-0.5h8.991c0.276,0,0.5,0.224,0.5,0.5 S23.767,48,23.491,48z"/><path fill="#fff" d="M12.5,48h-1c-0.276,0-0.5-0.224-0.5-0.5s0.224-0.5,0.5-0.5h1c0.276,0,0.5,0.224,0.5,0.5 S12.777,48,12.5,48z"/><path fill="#fff" d="M9.5,48h-2C7.224,48,7,47.776,7,47.5S7.224,47,7.5,47h2c0.276,0,0.5,0.224,0.5,0.5S9.777,48,9.5,48z"/><path fill="#fff" d="M15.5,50h-2c-0.276,0-0.5-0.224-0.5-0.5s0.224-0.5,0.5-0.5h2c0.276,0,0.5,0.224,0.5,0.5 S15.776,50,15.5,50z"/><path fill="#fff" d="M18.5,41c-0.177,0-0.823,0-1,0c-0.276,0-0.5,0.224-0.5,0.5s0.224,0.5,0.5,0.5c0.177,0,0.823,0,1,0 c0.276,0,0.5-0.224,0.5-0.5S18.776,41,18.5,41z"/><path fill="#fff" d="M18.5,43c-0.177,0-4.823,0-5,0c-0.276,0-0.5,0.224-0.5,0.5s0.224,0.5,0.5,0.5c0.177,0,4.823,0,5,0 c0.276,0,0.5-0.224,0.5-0.5S18.776,43,18.5,43z"/><path fill="#fff" d="M23.5,45c-0.177,0-2.823,0-3,0c-0.276,0-0.5,0.224-0.5,0.5s0.224,0.5,0.5,0.5c0.177,0,2.823,0,3,0 c0.276,0,0.5-0.224,0.5-0.5S23.776,45,23.5,45z"/><g><path fill="#fff" d="M86.5,70h-10c-0.276,0-0.5-0.224-0.5-0.5s0.224-0.5,0.5-0.5h10c0.276,0,0.5,0.224,0.5,0.5 S86.776,70,86.5,70z"/><path fill="#fff" d="M90.5,70h-2c-0.276,0-0.5-0.224-0.5-0.5s0.224-0.5,0.5-0.5h2c0.276,0,0.5,0.224,0.5,0.5 S90.776,70,90.5,70z"/><path fill="#fff" d="M95.5,72h-10c-0.276,0-0.5-0.224-0.5-0.5s0.224-0.5,0.5-0.5h10c0.276,0,0.5,0.224,0.5,0.5 S95.777,72,95.5,72z"/><path fill="#fff" d="M83.5,72h-1c-0.276,0-0.5-0.224-0.5-0.5s0.224-0.5,0.5-0.5h1c0.276,0,0.5,0.224,0.5,0.5 S83.776,72,83.5,72z"/><path fill="#fff" d="M80.47,72H78.5c-0.276,0-0.5-0.224-0.5-0.5s0.224-0.5,0.5-0.5h1.97c0.276,0,0.5,0.224,0.5,0.5 S80.746,72,80.47,72z"/><path fill="#fff" d="M89.5,68h-5c-0.276,0-0.5-0.224-0.5-0.5s0.224-0.5,0.5-0.5h5c0.276,0,0.5,0.224,0.5,0.5 S89.777,68,89.5,68z"/><path fill="#fff" d="M86.5,74h-2c-0.276,0-0.5-0.224-0.5-0.5s0.224-0.5,0.5-0.5h2c0.276,0,0.5,0.224,0.5,0.5 S86.776,74,86.5,74z"/></g><g><path fill="#472b29" d="M39.659,74.102c-0.979,0-1.846-0.236-2.581-0.713c-2.377-1.544-3.006-5.351-1.771-10.719 c1.182-5.138,3.927-11.191,7.73-17.047c6.542-10.075,14.815-17.251,20.117-17.453c1.086-0.041,2.036,0.2,2.83,0.715 c2.229,1.448,2.93,4.931,1.972,9.808c-0.075,0.38-0.446,0.627-0.822,0.552c-0.379-0.075-0.626-0.442-0.552-0.822 c0.829-4.216,0.333-7.265-1.361-8.365c-0.546-0.354-1.222-0.517-2.014-0.49c-4.797,0.182-12.787,7.254-18.996,16.816 c-3.715,5.721-6.393,11.616-7.54,16.598c-1.078,4.684-0.652,8.048,1.169,9.231c1.717,1.115,4.752,0.294,8.325-2.251 c0.314-0.224,0.751-0.151,0.977,0.164c0.224,0.315,0.151,0.752-0.164,0.977C44.194,73.087,41.688,74.102,39.659,74.102z"/></g><g><path fill="#472b29" d="M71.254,58.829c-0.28,0-0.545-0.17-0.653-0.447c-0.14-0.361,0.039-0.766,0.399-0.906 c3.532-1.37,5.531-3.154,5.629-5.022c0.221-4.208-9.626-9.243-24.635-10.029c-1.36-0.071-2.676-0.102-3.896-0.102 c-11.931,0.04-21.448,3.334-21.667,7.5c-0.098,1.862,1.698,3.839,5.055,5.569c0.343,0.177,0.479,0.599,0.301,0.943 c-0.177,0.343-0.6,0.479-0.943,0.301c-3.932-2.025-5.942-4.407-5.812-6.887c0.266-5.071,9.964-8.783,23.06-8.827 c1.24-0.001,2.587,0.03,3.974,0.104c14.854,0.778,26.257,5.83,25.96,11.501c-0.13,2.487-2.385,4.65-6.521,6.255 C71.424,58.813,71.338,58.829,71.254,58.829z"/></g><g><path fill="#472b29" d="M61.521,75.258c-2.277,0-5.079-1.468-8.119-4.298c-3.861-3.593-7.733-8.998-10.902-15.217 c-3.169-6.219-5.265-12.53-5.901-17.77c-0.665-5.472,0.361-9.195,2.887-10.482c0.51-0.26,1.073-0.414,1.675-0.459 c2.039-0.145,4.557,0.966,7.292,3.236c0.297,0.247,0.338,0.688,0.091,0.986c-0.247,0.296-0.688,0.337-0.986,0.091 c-2.449-2.033-4.618-3.049-6.292-2.917c-0.422,0.032-0.797,0.133-1.145,0.311c-1.935,0.986-2.712,4.29-2.132,9.066 c0.617,5.081,2.662,11.226,5.758,17.302c3.097,6.078,6.864,11.344,10.609,14.828c3.52,3.275,6.648,4.588,8.583,3.603 c4.021-2.049,2.713-13.229-2.915-24.922c-0.167-0.349-0.021-0.767,0.327-0.935c0.35-0.165,0.767-0.021,0.935,0.327 c6.157,12.793,7.141,24.304,2.289,26.776C62.953,75.101,62.265,75.258,61.521,75.258z"/></g><path fill="#685446" d="M54.773,51.503c0,1.699-1.377,3.076-3.076,3.076s-3.076-1.377-3.076-3.076l0,0	c0-1.699,1.377-3.076,3.076-3.076S54.773,49.804,54.773,51.503z"/><path fill="none" stroke="#472b29" stroke-linecap="round" stroke-miterlimit="10" stroke-width="1.4" d="M54.773,51.503	c0,1.699-1.377,3.076-3.076,3.076s-3.076-1.377-3.076-3.076l0,0c0-1.699,1.377-3.076,3.076-3.076S54.773,49.804,54.773,51.503z"/><g><path fill="#fdfcef" d="M31.582,80.533v0.5h3v-0.5c0,0,4.242,0,5.5,0c2.485,0,4.5-2.015,4.5-4.5 c0-2.333-1.782-4.229-4.055-4.455c0.022-0.181,0.055-0.358,0.055-0.545c0-2.485-2.015-4.5-4.5-4.5 c-1.438,0-2.703,0.686-3.527,1.736c-0.14-2.636-2.302-4.736-4.973-4.736c-2.761,0-5,2.239-5,5c0,0.446,0.077,0.87,0.187,1.282 c-0.642-0.777-1.601-1.282-2.687-1.282c-1.781,0-3.234,1.335-3.455,3.055c-0.181-0.022-0.358-0.055-0.545-0.055 c-2.485,0-4.5,2.015-4.5,4.5s2.015,4.5,4.5,4.5s9.5,0,9.5,0H31.582z"/><path fill="#472b29" d="M27.582,63.033c-3.033,0-5.5,2.467-5.5,5.5c0,0.016,0,0.031,0,0.047 c-0.602-0.355-1.29-0.547-2-0.547c-1.831,0-3.411,1.261-3.858,3.005c-0.047-0.003-0.094-0.005-0.142-0.005c-2.757,0-5,2.243-5,5 c0,2.757,2.243,5,5,5h15.5c0.276,0,0.5-0.224,0.5-0.5s-0.224-0.5-0.5-0.5h-15.5c-2.206,0-4-1.794-4-4s1.794-4,4-4 c0.117,0,0.23,0.017,0.343,0.032l0.141,0.019c0.021,0.003,0.041,0.004,0.062,0.004c0.246,0,0.462-0.185,0.495-0.437 c0.191-1.493,1.463-2.618,2.959-2.618c0.885,0,1.723,0.401,2.301,1.1c0.098,0.118,0.241,0.182,0.386,0.182 c0.078,0,0.156-0.018,0.228-0.056c0.209-0.107,0.314-0.346,0.254-0.573c-0.115-0.435-0.169-0.801-0.169-1.153 c0-2.481,2.019-4.5,4.5-4.5c2.381,0,4.347,1.872,4.474,4.263c0.011,0.208,0.15,0.387,0.349,0.45 c0.05,0.016,0.101,0.024,0.152,0.024c0.15,0,0.296-0.069,0.392-0.192c0.771-0.982,1.912-1.545,3.133-1.545c2.206,0,4,1.794,4,4 c0,0.117-0.017,0.23-0.032,0.343l-0.019,0.141c-0.016,0.134,0.022,0.268,0.106,0.373c0.084,0.105,0.207,0.172,0.34,0.185 c2.056,0.205,3.605,1.907,3.605,3.958c0,2.206-1.794,4-4,4h-5.5c-0.276,0-0.5,0.224-0.5,0.5s0.224,0.5,0.5,0.5h5.5 c2.757,0,5-2.243,5-5c0-2.397-1.689-4.413-4.003-4.877c0.002-0.041,0.003-0.082,0.003-0.123c0-2.757-2.243-5-5-5 c-1.176,0-2.293,0.416-3.183,1.164C32.301,64.793,30.137,63.033,27.582,63.033L27.582,63.033z"/><path fill="#472b29" d="M26.082,70.033c-1.403,0-2.609,0.999-2.913,2.341c-0.367-0.222-0.786-0.341-1.212-0.341 c-1.202,0-2.198,0.897-2.353,2.068c-0.203-0.046-0.396-0.068-0.585-0.068c-1.529,0-2.811,1.2-2.918,2.732 c-0.009,0.138,0.095,0.258,0.232,0.268c0.006,0,0.012,0,0.018,0c0.13,0,0.24-0.101,0.249-0.232 c0.089-1.271,1.151-2.268,2.419-2.268c0.229,0,0.47,0.042,0.738,0.127c0.022,0.007,0.045,0.01,0.067,0.01 c0.055,0,0.11-0.02,0.156-0.054c0.064-0.046,0.102-0.128,0.102-0.208c0-1.034,0.841-1.875,1.875-1.875 c0.447,0,0.885,0.168,1.231,0.473c0.047,0.041,0.106,0.063,0.165,0.063c0.032,0,0.063-0.006,0.093-0.019 c0.088-0.035,0.148-0.117,0.155-0.212c0.104-1.293,1.193-2.305,2.481-2.305c0.208,0,0.425,0.034,0.682,0.107 c0.023,0.007,0.047,0.01,0.07,0.01c0.109,0,0.207-0.073,0.239-0.182c0.038-0.133-0.039-0.271-0.172-0.309 C26.599,70.073,26.338,70.033,26.082,70.033L26.082,70.033z"/><path fill="#472b29" d="M39.965,71.533c-1.326,0-2.508,0.897-2.874,2.182c-0.038,0.133,0.039,0.271,0.172,0.309 c0.024,0.006,0.047,0.009,0.069,0.009c0.109,0,0.209-0.072,0.24-0.182c0.305-1.07,1.289-1.818,2.393-1.818 c0.117,0,0.23,0.014,0.342,0.029c0.012,0.002,0.023,0.003,0.035,0.003c0.121,0,0.229-0.092,0.246-0.217 c0.019-0.137-0.077-0.263-0.214-0.281C40.24,71.549,40.104,71.533,39.965,71.533L39.965,71.533z"/></g><g><path fill="#fdfcef" d="M67.5,24.544c0,0-1.567,0-3.5,0s-3.5-1.567-3.5-3.5c0-1.781,1.335-3.234,3.055-3.455 c-0.028-0.179-0.055-0.358-0.055-0.545c0-1.933,1.567-3.5,3.5-3.5c1.032,0,1.95,0.455,2.59,1.165 c0.384-1.808,1.987-3.165,3.91-3.165c2.209,0,4,1.791,4,4c0,0.191-0.03,0.374-0.056,0.558c0.428-0.344,0.964-0.558,1.556-0.558 c1.228,0,2.245,0.887,2.455,2.055c0.179-0.028,0.358-0.055,0.545-0.055c1.933,0,3.5,1.567,3.5,3.5s-1.567,3.5-3.5,3.5s-7.5,0-7.5,0 v0.5h-7V24.544z"/><path fill="#472b29" d="M65.75,20.044c0.138,0,0.25-0.112,0.25-0.25c0-1.223-0.995-2.218-2.218-2.218 c-0.034,0.009-0.737-0.001-1.244,0.136c-0.133,0.036-0.212,0.173-0.176,0.306c0.036,0.134,0.173,0.213,0.306,0.176 c0.444-0.12,1.1-0.12,1.113-0.118c0.948,0,1.719,0.771,1.719,1.718C65.5,19.932,65.612,20.044,65.75,20.044z"/><circle cx="72.5" cy="24.544" r=".5" fill="#472b29"/><path fill="#472b29" d="M64,25.044h3.5c0.276,0,0.5-0.224,0.5-0.5s-0.224-0.5-0.5-0.5H64c-1.654,0-3-1.346-3-3 c0-1.496,1.125-2.768,2.618-2.959c0.134-0.018,0.255-0.088,0.336-0.196s0.115-0.244,0.094-0.377C64.025,17.358,64,17.204,64,17.044 c0-1.654,1.346-3,3-3c0.85,0,1.638,0.355,2.219,1c0.125,0.139,0.321,0.198,0.5,0.148c0.182-0.049,0.321-0.195,0.36-0.379 c0.341-1.604,1.78-2.769,3.421-2.769c1.93,0,3.5,1.57,3.5,3.5c0,0.143-0.021,0.28-0.041,0.418c-0.029,0.203,0.063,0.438,0.242,0.54 s0.396,0.118,0.556-0.01c0.365-0.293,0.794-0.448,1.243-0.448c0.966,0,1.792,0.691,1.963,1.644 c0.048,0.267,0.296,0.446,0.569,0.405c0.154-0.024,0.308-0.049,0.468-0.049c1.654,0,3,1.346,3,3s-1.346,3-3,3h-7.5 c-0.276,0-0.5,0.224-0.5,0.5s0.224,0.5,0.5,0.5H82c2.206,0,4-1.794,4-4s-1.794-4-4-4c-0.059,0-0.116,0.002-0.174,0.006 c-0.414-1.186-1.537-2.006-2.826-2.006c-0.349,0-0.689,0.061-1.011,0.18c-0.165-2.333-2.115-4.18-4.489-4.18 c-1.831,0-3.466,1.127-4.153,2.774c-0.68-0.498-1.502-0.774-2.347-0.774c-2.206,0-4,1.794-4,4c0,0.048,0.001,0.095,0.004,0.142 C61.261,17.634,60,19.213,60,21.044C60,23.25,61.794,25.044,64,25.044z"/><path fill="#472b29" d="M69.5,24.044c0.159,0,0.841,0,1,0c0.276,0,0.5,0.224,0.5,0.5s-0.224,0.5-0.5,0.5 c-0.159,0-0.841,0-1,0c-0.276,0-0.5-0.224-0.5-0.5S69.224,24.044,69.5,24.044z"/></g></svg>